<svg id="Layer_1" data-name="Layer 1" xmlns="http://www.w3.org/2000/svg" xmlns:xlink="http://www.w3.org/1999/xlink" viewBox="0 0 394 317"><defs><style>.cls-1{fill:#d9d9d9;fill-opacity:0.07;}.cls-2{fill:#aa00c0;}.cls-3{fill:#fff;}.cls-4{fill:none;stroke-width:2px;stroke:url(#radial-gradient);}.cls-5{fill:#fafafa;fill-rule:evenodd;}</style><radialGradient id="radial-gradient" cx="-521.74" cy="417.03" r="1" gradientTransform="matrix(4.99, 406.33, 505.01, -6.2, -207850.38, 214528.09)" gradientUnits="userSpaceOnUse"><stop offset="0" stop-color="#ff72d0"/><stop offset="1" stop-color="#ff72d0" stop-opacity="0"/></radialGradient></defs><rect class="cls-1" width="394" height="317" rx="20"/><rect class="cls-2" x="27" y="34" width="50" height="50" rx="7"/><path class="cls-3" d="M45.36,117.27l-3,12.73H38.5l-2-8.51-2,8.51H30.6l-3-12.73h3.35l1.63,9.22,2.24-9.22h3.36l2.23,9.22L42,117.27Zm8,2.58A3.43,3.43,0,0,1,56.08,121a4.57,4.57,0,0,1,1,3.17V130H54v-5.47a2.17,2.17,0,0,0-.54-1.57,1.8,1.8,0,0,0-1.4-.57,2,2,0,0,0-1.5.59,2.43,2.43,0,0,0-.54,1.69V130H47V116.68h3.07v5.11a3.38,3.38,0,0,1,1.28-1.42A3.82,3.82,0,0,1,53.35,119.85Zm10.49,0a5.53,5.53,0,0,1,2.66.63,4.49,4.49,0,0,1,1.86,1.78,5.84,5.84,0,0,1,0,5.47,4.6,4.6,0,0,1-1.86,1.8,5.64,5.64,0,0,1-2.66.62,5.72,5.72,0,0,1-2.68-.62,4.65,4.65,0,0,1-1.88-1.8,6,6,0,0,1,0-5.47,4.54,4.54,0,0,1,1.88-1.78A5.61,5.61,0,0,1,63.84,119.83Zm0,2.66a2,2,0,0,0-1.5.65,3.15,3.15,0,0,0,0,3.67,2,2,0,0,0,1.5.63,1.92,1.92,0,0,0,1.47-.63,3.11,3.11,0,0,0,0-3.67A1.91,1.91,0,0,0,63.84,122.49Zm14.22-2.66a3.66,3.66,0,0,1,2,.52,3.12,3.12,0,0,1,1.22,1.42V120h3.06v10H81.26v-1.82A3.07,3.07,0,0,1,80,129.6a3.66,3.66,0,0,1-2,.53,4.17,4.17,0,0,1-2.24-.62,4.41,4.41,0,0,1-1.54-1.8,7,7,0,0,1,0-5.47,4.29,4.29,0,0,1,1.54-1.78A4.09,4.09,0,0,1,78.06,119.83Zm1,2.7a2.13,2.13,0,0,0-1.61.65,3,3,0,0,0,0,3.6,2.13,2.13,0,0,0,1.61.65,2.08,2.08,0,0,0,1.58-.67,2.48,2.48,0,0,0,.63-1.78,2.43,2.43,0,0,0-.63-1.78A2,2,0,0,0,79.05,122.53Zm10.47-.68A4.28,4.28,0,0,1,91,120.39a3.85,3.85,0,0,1,2-.54v3.29h-.88a3.16,3.16,0,0,0-1.91.52,2.13,2.13,0,0,0-.66,1.77V130H86.44V120h3.08Zm14.28,2.86a4.28,4.28,0,0,1-.09.83h-7a2.3,2.3,0,0,0,.57,1.63,1.85,1.85,0,0,0,1.33.49,1.82,1.82,0,0,0,1.14-.34,1.56,1.56,0,0,0,.59-.88h3.26a4.33,4.33,0,0,1-.86,1.9,4.76,4.76,0,0,1-1.7,1.32,5.44,5.44,0,0,1-2.28.47,5.49,5.49,0,0,1-2.63-.62,4.47,4.47,0,0,1-1.78-1.8,5.57,5.57,0,0,1-.65-2.73,5.63,5.63,0,0,1,.63-2.74,4.35,4.35,0,0,1,1.8-1.78,5.38,5.38,0,0,1,2.63-.63,5.46,5.46,0,0,1,2.63.61,4.32,4.32,0,0,1,1.74,1.73A5,5,0,0,1,103.8,124.71Zm-3.11-.47a1.84,1.84,0,0,0-.54-1.48,1.93,1.93,0,0,0-1.35-.5,2.06,2.06,0,0,0-1.41.5,2.14,2.14,0,0,0-.63,1.48Zm13-4.41a5.53,5.53,0,0,1,2.66.63,4.41,4.41,0,0,1,1.85,1.78,5.77,5.77,0,0,1,0,5.47,4.52,4.52,0,0,1-1.85,1.8,5.64,5.64,0,0,1-2.66.62,5.72,5.72,0,0,1-2.68-.62,4.65,4.65,0,0,1-1.88-1.8,6,6,0,0,1,0-5.47,4.54,4.54,0,0,1,1.88-1.78A5.61,5.61,0,0,1,113.71,119.83Zm0,2.66a2,2,0,0,0-1.5.65,3.15,3.15,0,0,0,0,3.67,2,2,0,0,0,1.5.63,1.94,1.94,0,0,0,1.47-.63,3.11,3.11,0,0,0,0-3.67A1.92,1.92,0,0,0,113.71,122.49ZM130.49,120v10H127.4v-1.82a3.33,3.33,0,0,1-1.3,1.41,3.75,3.75,0,0,1-2,.52,3.52,3.52,0,0,1-2.75-1.15,4.67,4.67,0,0,1-1-3.17V120h3.06v5.45a2.33,2.33,0,0,0,.52,1.6,2.14,2.14,0,0,0,2.92,0,2.44,2.44,0,0,0,.54-1.7V120Zm5.21,1.89a4.28,4.28,0,0,1,1.47-1.46,3.83,3.83,0,0,1,2-.54v3.29h-.88a3.14,3.14,0,0,0-1.91.52,2.13,2.13,0,0,0-.66,1.77V130h-3.08V120h3.08Z"/><path class="cls-3" d="M33.29,169.61a5.39,5.39,0,0,1,3.29,1,4.76,4.76,0,0,1,1.81,2.66H36.86a3.5,3.5,0,0,0-1.35-1.65A3.9,3.9,0,0,0,33.3,171a4,4,0,0,0-2.06.54A3.71,3.71,0,0,0,29.8,173a5,5,0,0,0-.51,2.34,5,5,0,0,0,.53,2.38,3.78,3.78,0,0,0,1.45,1.54,4.37,4.37,0,0,0,2.16.53,4.08,4.08,0,0,0,1.91-.45,3.63,3.63,0,0,0,1.4-1.3,4.41,4.41,0,0,0,.68-2H33V175h5.67v1.34a5.72,5.72,0,0,1-.83,2.43A5,5,0,0,1,36,180.47a5.4,5.4,0,0,1-2.66.64,5.7,5.7,0,0,1-2.88-.72,5.22,5.22,0,0,1-2-2,6.8,6.8,0,0,1,0-6,5.27,5.27,0,0,1,2-2A5.57,5.57,0,0,1,33.29,169.61ZM42.08,174a3.2,3.2,0,0,1,1.26-1.41,3.75,3.75,0,0,1,2-.51v1.59h-.45a3.08,3.08,0,0,0-2,.64,2.49,2.49,0,0,0-.78,2.08V181H40.62v-8.78h1.46Zm8.67-1.89a4.63,4.63,0,0,1,2.25.55,3.77,3.77,0,0,1,1.57,1.57,4.84,4.84,0,0,1,.58,2.4,4.9,4.9,0,0,1-.58,2.4A3.84,3.84,0,0,1,53,180.57a4.62,4.62,0,0,1-2.25.54,4.77,4.77,0,0,1-2.28-.54A3.94,3.94,0,0,1,46.91,179a4.79,4.79,0,0,1-.58-2.4,4.74,4.74,0,0,1,.58-2.4,3.87,3.87,0,0,1,1.56-1.57A4.77,4.77,0,0,1,50.75,172.1Zm0,1.28a3,3,0,0,0-1.46.36,2.65,2.65,0,0,0-1.07,1.08,3.63,3.63,0,0,0-.4,1.8,3.67,3.67,0,0,0,.4,1.79,2.75,2.75,0,0,0,1.07,1.07,3.15,3.15,0,0,0,1.46.35,3.07,3.07,0,0,0,1.44-.35,2.69,2.69,0,0,0,1.07-1.07,3.56,3.56,0,0,0,.41-1.79,3.53,3.53,0,0,0-.41-1.8,2.59,2.59,0,0,0-1.07-1.08A3,3,0,0,0,50.75,173.38ZM61,172.1a4.63,4.63,0,0,1,2.25.55,3.72,3.72,0,0,1,1.57,1.57,4.74,4.74,0,0,1,.58,2.4,4.79,4.79,0,0,1-.58,2.4,3.78,3.78,0,0,1-1.57,1.55,4.62,4.62,0,0,1-2.25.54,4.7,4.7,0,0,1-2.27-.54A3.9,3.9,0,0,1,57.19,179a4.79,4.79,0,0,1-.58-2.4,4.74,4.74,0,0,1,.58-2.4,3.83,3.83,0,0,1,1.57-1.57A4.71,4.71,0,0,1,61,172.1Zm0,1.28a3,3,0,0,0-1.46.36,2.65,2.65,0,0,0-1.07,1.08,3.63,3.63,0,0,0-.4,1.8,3.67,3.67,0,0,0,.4,1.79,2.75,2.75,0,0,0,1.07,1.07,3.15,3.15,0,0,0,1.46.35,3.07,3.07,0,0,0,1.44-.35,2.62,2.62,0,0,0,1.07-1.07,3.56,3.56,0,0,0,.42-1.79,3.53,3.53,0,0,0-.42-1.8,2.53,2.53,0,0,0-1.07-1.08A3,3,0,0,0,61,173.38Zm17.09-1.31a3.22,3.22,0,0,1,2.47,1,3.93,3.93,0,0,1,.94,2.84V181H80.08v-5a2.84,2.84,0,0,0-.64-2,2.23,2.23,0,0,0-1.73-.69,2.41,2.41,0,0,0-1.86.77,3.17,3.17,0,0,0-.69,2.22V181H73.71v-5a2.84,2.84,0,0,0-.64-2,2.24,2.24,0,0,0-1.73-.69,2.42,2.42,0,0,0-1.87.77,3.17,3.17,0,0,0-.69,2.22V181H67.32v-8.78h1.46v2a2.78,2.78,0,0,1,1.14-1.59,3.34,3.34,0,0,1,1.9-.56,3.25,3.25,0,0,1,1.94.58,3,3,0,0,1,1.18,1.66,3.23,3.23,0,0,1,1.23-1.65A3.42,3.42,0,0,1,78.12,172.07Zm5.42-2.43a.81.81,0,0,1,.27-.64,1.13,1.13,0,0,1,1.44,0,.81.81,0,0,1,.27.64.88.88,0,0,1-.27.66,1.2,1.2,0,0,1-1.44,0A.88.88,0,0,1,83.54,169.64Zm1.71,2.58V181H83.79v-8.78Zm7-.15a3.26,3.26,0,0,1,2.48,1,3.93,3.93,0,0,1,1,2.84V181H94.18v-5a2.79,2.79,0,0,0-.67-2,2.41,2.41,0,0,0-1.82-.71,2.49,2.49,0,0,0-1.92.79,3.17,3.17,0,0,0-.72,2.25V181H87.59v-8.78h1.46v2.08a2.93,2.93,0,0,1,1.18-1.65A3.46,3.46,0,0,1,92.21,172.07Zm9.26,0a3.63,3.63,0,0,1,2.16.64,3.35,3.35,0,0,1,1.25,1.72v-2.24h1.45v8.92a4.42,4.42,0,0,1-.51,2.16,3.73,3.73,0,0,1-1.44,1.48,4.32,4.32,0,0,1-2.16.52,4.56,4.56,0,0,1-2.89-.86,3.75,3.75,0,0,1-1.43-2.3h1.44a2.47,2.47,0,0,0,1,1.37,3.12,3.12,0,0,0,1.84.51,2.68,2.68,0,0,0,2-.76,2.81,2.81,0,0,0,.78-2.12v-2.38a3.33,3.33,0,0,1-1.25,1.71,3.57,3.57,0,0,1-2.16.64,4,4,0,0,1-2.08-.54A3.79,3.79,0,0,1,98,179a5.37,5.37,0,0,1-.51-2.4,5.31,5.31,0,0,1,.51-2.4,3.72,3.72,0,0,1,1.44-1.57A4,4,0,0,1,101.47,172.1Zm.42,1.3a2.84,2.84,0,0,0-2.16.86,3.88,3.88,0,0,0,0,4.72,2.83,2.83,0,0,0,2.16.85,2.91,2.91,0,0,0,1.53-.4,2.84,2.84,0,0,0,1.08-1.12,3.66,3.66,0,0,0,.38-1.69,3.7,3.7,0,0,0-.38-1.7,2.71,2.71,0,0,0-1.08-1.12A2.91,2.91,0,0,0,101.89,173.4Zm12.17-2.5v3.86h4.29v1.12h-4.29v3.94h4.77V181h-6.22V169.72h6.22v1.18Zm11.26,1.17a3.26,3.26,0,0,1,2.48,1,3.93,3.93,0,0,1,1,2.84V181h-1.46v-5a2.79,2.79,0,0,0-.67-2,2.42,2.42,0,0,0-1.83-.71,2.49,2.49,0,0,0-1.91.79,3.13,3.13,0,0,0-.73,2.25V181H120.7v-8.78h1.45v2.08a3,3,0,0,1,1.19-1.65A3.46,3.46,0,0,1,125.32,172.07Zm9.26,0a3.63,3.63,0,0,1,2.16.64,3.35,3.35,0,0,1,1.25,1.72v-5.3h1.46V181H138v-2.24a3.33,3.33,0,0,1-1.25,1.71,3.57,3.57,0,0,1-2.16.64,4,4,0,0,1-2.08-.54,3.79,3.79,0,0,1-1.44-1.55,5.37,5.37,0,0,1-.51-2.4,5.31,5.31,0,0,1,.51-2.4,3.72,3.72,0,0,1,1.44-1.57A4,4,0,0,1,134.58,172.1Zm.42,1.3a2.84,2.84,0,0,0-2.16.86,3.88,3.88,0,0,0,0,4.72,2.83,2.83,0,0,0,2.16.85,2.89,2.89,0,0,0,1.53-.4,2.75,2.75,0,0,0,1.07-1.12,3.54,3.54,0,0,0,.39-1.69,3.58,3.58,0,0,0-.39-1.7,2.63,2.63,0,0,0-1.07-1.12A2.89,2.89,0,0,0,135,173.4Zm10.75-1.3a4.63,4.63,0,0,1,2.25.55,3.77,3.77,0,0,1,1.57,1.57,4.84,4.84,0,0,1,.58,2.4,4.9,4.9,0,0,1-.58,2.4,3.84,3.84,0,0,1-1.57,1.55,4.62,4.62,0,0,1-2.25.54,4.77,4.77,0,0,1-2.28-.54,3.94,3.94,0,0,1-1.56-1.55,4.79,4.79,0,0,1-.58-2.4,4.74,4.74,0,0,1,.58-2.4,3.87,3.87,0,0,1,1.56-1.57A4.77,4.77,0,0,1,145.75,172.1Zm0,1.28a3,3,0,0,0-1.46.36,2.59,2.59,0,0,0-1.07,1.08,3.63,3.63,0,0,0-.4,1.8,3.67,3.67,0,0,0,.4,1.79,2.69,2.69,0,0,0,1.07,1.07,3.15,3.15,0,0,0,1.46.35,3.07,3.07,0,0,0,1.44-.35,2.69,2.69,0,0,0,1.07-1.07,3.56,3.56,0,0,0,.41-1.79,3.53,3.53,0,0,0-.41-1.8,2.59,2.59,0,0,0-1.07-1.08A3,3,0,0,0,145.75,173.38Zm18.36-1.16L161.58,181H160l-2.41-7.15L155.16,181h-1.58l-2.5-8.78h1.47l1.88,7.39,2.43-7.39h1.52l2.45,7.37,1.88-7.37Zm12.15-.15a3.22,3.22,0,0,1,2.47,1,3.93,3.93,0,0,1,.94,2.84V181h-1.45v-5a2.84,2.84,0,0,0-.64-2,2.22,2.22,0,0,0-1.73-.69,2.41,2.41,0,0,0-1.86.77,3.17,3.17,0,0,0-.69,2.22V181h-1.45v-5a2.79,2.79,0,0,0-.64-2,2.24,2.24,0,0,0-1.73-.69,2.42,2.42,0,0,0-1.87.77,3.17,3.17,0,0,0-.69,2.22V181h-1.46v-8.78h1.46v2a2.78,2.78,0,0,1,1.14-1.59,3.34,3.34,0,0,1,1.9-.56,3.25,3.25,0,0,1,1.94.58,3,3,0,0,1,1.18,1.66,3.23,3.23,0,0,1,1.23-1.65A3.42,3.42,0,0,1,176.26,172.07ZM190,176.12a4.58,4.58,0,0,1-.06.8h-7a3.11,3.11,0,0,0,.84,2.26,3.09,3.09,0,0,0,3.75.22,2.24,2.24,0,0,0,.88-1.44H190a3.7,3.7,0,0,1-.72,1.63,3.59,3.59,0,0,1-1.42,1.12,4.72,4.72,0,0,1-2,.4,4.56,4.56,0,0,1-2.24-.54,3.87,3.87,0,0,1-1.53-1.55,5,5,0,0,1-.55-2.4,5,5,0,0,1,.55-2.4,3.8,3.8,0,0,1,1.53-1.57,4.56,4.56,0,0,1,2.24-.55,4.41,4.41,0,0,1,2.23.55,3.68,3.68,0,0,1,1.45,1.45A4.07,4.07,0,0,1,190,176.12Zm-1.47.1a3,3,0,0,0-.32-1.64,2.31,2.31,0,0,0-1-1,3.09,3.09,0,0,0-1.39-.32,2.85,2.85,0,0,0-2,.75,3,3,0,0,0-.88,2.18Zm8-4.15a3.26,3.26,0,0,1,2.48,1,3.93,3.93,0,0,1,.95,2.84V181h-1.46v-5a2.79,2.79,0,0,0-.67-2,2.42,2.42,0,0,0-1.83-.71,2.49,2.49,0,0,0-1.92.79,3.17,3.17,0,0,0-.72,2.25V181h-1.45v-8.78h1.45v2.08a3,3,0,0,1,1.19-1.65A3.42,3.42,0,0,1,196.54,172.07Zm9.85,7.65V181H205.3a2.81,2.81,0,0,1-2-.64,2.9,2.9,0,0,1-.66-2.14v-4.74h-1.31v-1.26h1.31V170h1.47v2.2h2.28v1.26H204.1v4.77a1.75,1.75,0,0,0,.31,1.17,1.55,1.55,0,0,0,1.08.3Zm12.64-10v1.18h-3.18V181h-1.46V170.9h-3.18v-1.18Zm2.91,4.27a3.2,3.2,0,0,1,1.26-1.41,3.74,3.74,0,0,1,2-.51v1.59h-.44a3.06,3.06,0,0,0-2,.64,2.49,2.49,0,0,0-.78,2.08V181h-1.46v-8.78h1.46Zm12.49-1.77V181H233v-2.06a2.93,2.93,0,0,1-1.2,1.64,3.44,3.44,0,0,1-2,.56,3.29,3.29,0,0,1-2.47-1,4,4,0,0,1-.94-2.83v-5.12h1.46v5a2.84,2.84,0,0,0,.67,2,2.41,2.41,0,0,0,1.82.71,2.52,2.52,0,0,0,1.92-.77,3.24,3.24,0,0,0,.72-2.27v-4.67Zm5.08-.12a3.51,3.51,0,0,1,2.39.79A3.2,3.2,0,0,1,243,175h-1.39a1.93,1.93,0,0,0-.66-1.28,2.05,2.05,0,0,0-1.47-.51,1.81,1.81,0,0,0-1.23.38,1.24,1.24,0,0,0-.43,1,1,1,0,0,0,.29.78,2.15,2.15,0,0,0,.73.45c.3.1.71.2,1.22.32a11.05,11.05,0,0,1,1.57.46,2.4,2.4,0,0,1,1,.74,2.05,2.05,0,0,1,.43,1.38,2.16,2.16,0,0,1-.81,1.74,3.24,3.24,0,0,1-2.15.67,4.14,4.14,0,0,1-2.56-.75,3,3,0,0,1-1.17-2.1h1.41a1.81,1.81,0,0,0,.69,1.3,2.56,2.56,0,0,0,1.63.5,1.65,1.65,0,0,0,1.17-.39,1.27,1.27,0,0,0,.43-1,1.09,1.09,0,0,0-.3-.81,2.22,2.22,0,0,0-.75-.47,10.91,10.91,0,0,0-1.24-.33,12,12,0,0,1-1.56-.45,2.49,2.49,0,0,1-1-.7,2.11,2.11,0,0,1-.4-1.33,2.21,2.21,0,0,1,.82-1.78A3.31,3.31,0,0,1,239.51,172.1Zm9.71,7.62V181h-1.09a2.79,2.79,0,0,1-2-.64,2.9,2.9,0,0,1-.66-2.14v-4.74h-1.31v-1.26h1.31V170h1.47v2.2h2.27v1.26h-2.27v4.77a1.69,1.69,0,0,0,.31,1.17,1.55,1.55,0,0,0,1.08.3Zm17.79-7.5L264.48,181h-1.56l-2.42-7.15L258.07,181h-1.59L254,172.22h1.47l1.87,7.39,2.44-7.39h1.52l2.44,7.37,1.89-7.37Zm5-.12a3.63,3.63,0,0,1,2.16.64,3.35,3.35,0,0,1,1.25,1.72v-2.24h1.45V181h-1.45v-2.24a3.33,3.33,0,0,1-1.25,1.71,3.57,3.57,0,0,1-2.16.64,4,4,0,0,1-2.08-.54,3.79,3.79,0,0,1-1.44-1.55,5.37,5.37,0,0,1-.51-2.4,5.31,5.31,0,0,1,.51-2.4,3.72,3.72,0,0,1,1.44-1.57A4,4,0,0,1,272,172.1Zm.42,1.3a2.84,2.84,0,0,0-2.16.86,3.88,3.88,0,0,0,0,4.72,2.83,2.83,0,0,0,2.16.85,2.89,2.89,0,0,0,1.53-.4,2.75,2.75,0,0,0,1.07-1.12,3.54,3.54,0,0,0,.39-1.69,3.58,3.58,0,0,0-.39-1.7,2.63,2.63,0,0,0-1.07-1.12A2.89,2.89,0,0,0,272.39,173.4Zm9.51-1.3a3.51,3.51,0,0,1,2.39.79,3.2,3.2,0,0,1,1.1,2.08H284a1.93,1.93,0,0,0-.66-1.28,2.05,2.05,0,0,0-1.47-.51,1.81,1.81,0,0,0-1.23.38,1.24,1.24,0,0,0-.43,1,1,1,0,0,0,.29.78,2.15,2.15,0,0,0,.73.45c.3.1.71.2,1.22.32a11.05,11.05,0,0,1,1.57.46,2.4,2.4,0,0,1,1,.74,2.05,2.05,0,0,1,.43,1.38,2.16,2.16,0,0,1-.81,1.74,3.24,3.24,0,0,1-2.15.67,4.14,4.14,0,0,1-2.56-.75,3,3,0,0,1-1.17-2.1h1.41a1.89,1.89,0,0,0,.69,1.3,2.56,2.56,0,0,0,1.63.5,1.65,1.65,0,0,0,1.17-.39,1.27,1.27,0,0,0,.43-1,1.09,1.09,0,0,0-.3-.81,2,2,0,0,0-.75-.47,10.91,10.91,0,0,0-1.24-.33,12,12,0,0,1-1.56-.45,2.49,2.49,0,0,1-1-.7,2.11,2.11,0,0,1-.4-1.33,2.21,2.21,0,0,1,.82-1.78A3.33,3.33,0,0,1,281.9,172.1Zm12.22,0a3.53,3.53,0,0,1,2.39.79,3.24,3.24,0,0,1,1.1,2.08h-1.39a2,2,0,0,0-.66-1.28,2.05,2.05,0,0,0-1.47-.51,1.81,1.81,0,0,0-1.23.38,1.24,1.24,0,0,0-.43,1,1.08,1.08,0,0,0,.28.78,2.29,2.29,0,0,0,.74.45c.3.1.7.2,1.22.32a10.49,10.49,0,0,1,1.56.46,2.37,2.37,0,0,1,1,.74,2.05,2.05,0,0,1,.43,1.38,2.16,2.16,0,0,1-.81,1.74,3.24,3.24,0,0,1-2.15.67,4.14,4.14,0,0,1-2.56-.75,3,3,0,0,1-1.17-2.1h1.41a1.81,1.81,0,0,0,.69,1.3,2.56,2.56,0,0,0,1.63.5,1.65,1.65,0,0,0,1.17-.39,1.27,1.27,0,0,0,.43-1,1.09,1.09,0,0,0-.3-.81,2.17,2.17,0,0,0-.76-.47,10.1,10.1,0,0,0-1.23-.33,12,12,0,0,1-1.56-.45,2.49,2.49,0,0,1-1-.7,2.11,2.11,0,0,1-.4-1.33,2.21,2.21,0,0,1,.82-1.78A3.31,3.31,0,0,1,294.12,172.1Zm13.6,4a3.72,3.72,0,0,1-.07.8h-7a3.07,3.07,0,0,0,.85,2.26,2.81,2.81,0,0,0,2,.75,2.85,2.85,0,0,0,1.76-.53,2.24,2.24,0,0,0,.88-1.44h1.55a3.72,3.72,0,0,1-2.14,2.75,4.72,4.72,0,0,1-2,.4,4.49,4.49,0,0,1-2.23-.54,3.83,3.83,0,0,1-1.54-1.55,5.12,5.12,0,0,1-.55-2.4,5.06,5.06,0,0,1,.55-2.4,3.76,3.76,0,0,1,1.54-1.57,4.49,4.49,0,0,1,2.23-.55,4.41,4.41,0,0,1,2.23.55,3.68,3.68,0,0,1,1.45,1.45A4,4,0,0,1,307.72,176.12Zm-1.48.1a2.91,2.91,0,0,0-.32-1.64,2.34,2.34,0,0,0-1-1,3.13,3.13,0,0,0-1.4-.32,2.86,2.86,0,0,0-2,.75,3,3,0,0,0-.88,2.18Zm7.57,3.5V181h-1.08a2.82,2.82,0,0,1-2-.64,2.9,2.9,0,0,1-.66-2.14v-4.74h-1.31v-1.26h1.31V170h1.47v2.2h2.28v1.26h-2.28v4.77a1.75,1.75,0,0,0,.31,1.17,1.56,1.56,0,0,0,1.09.3Zm13.54-7.5V181h-1.46v-2.06a3,3,0,0,1-1.19,1.64,3.49,3.49,0,0,1-2,.56,3.27,3.27,0,0,1-2.46-1,4,4,0,0,1-.95-2.83v-5.12h1.46v5a2.84,2.84,0,0,0,.67,2,2.42,2.42,0,0,0,1.83.71,2.49,2.49,0,0,0,1.91-.77,3.24,3.24,0,0,0,.72-2.27v-4.67Zm7.18-.12a4,4,0,0,1,2.08.55,3.7,3.7,0,0,1,1.43,1.57,5.18,5.18,0,0,1,.52,2.4A5.24,5.24,0,0,1,338,179a3.77,3.77,0,0,1-1.43,1.55,4,4,0,0,1-2.08.54,3.6,3.6,0,0,1-2.17-.64,3.3,3.3,0,0,1-1.22-1.71v6.4h-1.46V172.22h1.46v2.24a3.23,3.23,0,0,1,1.22-1.7A3.54,3.54,0,0,1,334.53,172.1Zm-.41,1.3a3,3,0,0,0-1.54.4,2.63,2.63,0,0,0-1.07,1.12,3.58,3.58,0,0,0-.39,1.7,3.54,3.54,0,0,0,.39,1.69,2.75,2.75,0,0,0,1.07,1.12,3,3,0,0,0,1.54.4,2.83,2.83,0,0,0,2.16-.85,3.84,3.84,0,0,0,0-4.72A2.84,2.84,0,0,0,334.12,173.4Zm13.9-1.3a3.63,3.63,0,0,1,2.16.64,3.41,3.41,0,0,1,1.25,1.72v-2.24h1.45V181h-1.45v-2.24a3.38,3.38,0,0,1-1.25,1.71,3.57,3.57,0,0,1-2.16.64,4,4,0,0,1-2.08-.54A3.79,3.79,0,0,1,344.5,179a5.37,5.37,0,0,1-.51-2.4,5.31,5.31,0,0,1,.51-2.4,3.72,3.72,0,0,1,1.44-1.57A4,4,0,0,1,348,172.1Zm.41,1.3a2.87,2.87,0,0,0-2.16.86,3.88,3.88,0,0,0,0,4.72,2.86,2.86,0,0,0,2.16.85,2.92,2.92,0,0,0,1.54-.4,2.75,2.75,0,0,0,1.07-1.12,3.54,3.54,0,0,0,.39-1.69,3.58,3.58,0,0,0-.39-1.7A2.63,2.63,0,0,0,350,173.8,2.92,2.92,0,0,0,348.43,173.4Zm9.52-1.3a3.49,3.49,0,0,1,2.38.79,3.21,3.21,0,0,1,1.11,2.08h-1.39a2,2,0,0,0-.66-1.28,2.05,2.05,0,0,0-1.47-.51,1.81,1.81,0,0,0-1.23.38,1.24,1.24,0,0,0-.43,1,1.08,1.08,0,0,0,.28.78,2.29,2.29,0,0,0,.74.45c.3.1.7.2,1.21.32a10.31,10.31,0,0,1,1.57.46,2.37,2.37,0,0,1,1,.74,2.05,2.05,0,0,1,.43,1.38,2.14,2.14,0,0,1-.82,1.74,3.21,3.21,0,0,1-2.14.67,4.12,4.12,0,0,1-2.56-.75,3,3,0,0,1-1.17-2.1h1.41a1.81,1.81,0,0,0,.69,1.3,2.54,2.54,0,0,0,1.63.5,1.65,1.65,0,0,0,1.17-.39,1.27,1.27,0,0,0,.43-1,1.09,1.09,0,0,0-.3-.81,2.17,2.17,0,0,0-.76-.47,11.24,11.24,0,0,0-1.23-.33,12.76,12.76,0,0,1-1.57-.45,2.53,2.53,0,0,1-1-.7,2.11,2.11,0,0,1-.4-1.33,2.18,2.18,0,0,1,.82-1.78A3.31,3.31,0,0,1,358,172.1Zm-326.18,24a3.63,3.63,0,0,1,2.16.64,3.35,3.35,0,0,1,1.25,1.72v-2.24h1.45V205H35.18v-2.24a3.33,3.33,0,0,1-1.25,1.71,3.57,3.57,0,0,1-2.16.64,4,4,0,0,1-2.08-.54A3.79,3.79,0,0,1,28.25,203a5.37,5.37,0,0,1-.51-2.4,5.31,5.31,0,0,1,.51-2.4,3.72,3.72,0,0,1,1.44-1.57A4,4,0,0,1,31.77,196.1Zm.41,1.3a2.87,2.87,0,0,0-2.16.86A3.88,3.88,0,0,0,30,203a2.86,2.86,0,0,0,2.16.85,2.92,2.92,0,0,0,1.54-.4,2.75,2.75,0,0,0,1.07-1.12,3.54,3.54,0,0,0,.39-1.69,3.58,3.58,0,0,0-.39-1.7,2.63,2.63,0,0,0-1.07-1.12A2.92,2.92,0,0,0,32.18,197.4Zm15.35-1.33a3.28,3.28,0,0,1,2.48,1A3.93,3.93,0,0,1,51,199.9V205H49.49v-5a2.79,2.79,0,0,0-.67-2A2.39,2.39,0,0,0,47,197.3a2.49,2.49,0,0,0-1.92.79,3.17,3.17,0,0,0-.72,2.25V205H42.9v-8.78h1.46v2.08a3,3,0,0,1,1.18-1.65A3.47,3.47,0,0,1,47.53,196.07Zm9.64,0a4.63,4.63,0,0,1,2.25.55A3.72,3.72,0,0,1,61,198.22a4.74,4.74,0,0,1,.58,2.4A4.79,4.79,0,0,1,61,203a3.78,3.78,0,0,1-1.57,1.55,4.62,4.62,0,0,1-2.25.54,4.73,4.73,0,0,1-2.27-.54A3.9,3.9,0,0,1,53.33,203a4.79,4.79,0,0,1-.58-2.4,4.74,4.74,0,0,1,.58-2.4,3.83,3.83,0,0,1,1.57-1.57A4.73,4.73,0,0,1,57.17,196.1Zm0,1.28a3.06,3.06,0,0,0-1.46.36,2.65,2.65,0,0,0-1.07,1.08,3.63,3.63,0,0,0-.4,1.8,3.67,3.67,0,0,0,.4,1.79,2.75,2.75,0,0,0,1.07,1.07,3.18,3.18,0,0,0,1.46.35,3.07,3.07,0,0,0,1.44-.35,2.62,2.62,0,0,0,1.07-1.07,3.56,3.56,0,0,0,.42-1.79,3.53,3.53,0,0,0-.42-1.8,2.53,2.53,0,0,0-1.07-1.08A3,3,0,0,0,57.17,197.38Zm10.92-1.31a3.28,3.28,0,0,1,2.48,1,3.93,3.93,0,0,1,.94,2.84V205H70.06v-5a2.79,2.79,0,0,0-.68-2,2.38,2.38,0,0,0-1.82-.71,2.49,2.49,0,0,0-1.92.79,3.17,3.17,0,0,0-.72,2.25V205H63.46v-8.78h1.46v2.08a3,3,0,0,1,1.18-1.65A3.47,3.47,0,0,1,68.09,196.07Zm10.5,0a4,4,0,0,1,2.08.55,3.64,3.64,0,0,1,1.43,1.57,5.18,5.18,0,0,1,.53,2.4,5.24,5.24,0,0,1-.53,2.4,3.7,3.7,0,0,1-1.43,1.55,4,4,0,0,1-2.08.54,3.62,3.62,0,0,1-2.17-.64,3.35,3.35,0,0,1-1.22-1.71v6.4H73.75V196.22H75.2v2.24a3.29,3.29,0,0,1,1.22-1.7A3.56,3.56,0,0,1,78.59,196.1Zm-.41,1.3a3,3,0,0,0-1.54.4,2.69,2.69,0,0,0-1.07,1.12,3.58,3.58,0,0,0-.38,1.7,3.54,3.54,0,0,0,.38,1.69,2.82,2.82,0,0,0,1.07,1.12,3,3,0,0,0,1.54.4,2.83,2.83,0,0,0,2.16-.85,3.84,3.84,0,0,0,0-4.72A2.84,2.84,0,0,0,78.18,197.4ZM86,198a3.17,3.17,0,0,1,1.27-1.41,3.69,3.69,0,0,1,2-.51v1.59h-.45a3,3,0,0,0-2,.64,2.47,2.47,0,0,0-.79,2.08V205H84.53v-8.78H86Zm8.67-1.89a4.67,4.67,0,0,1,2.26.55,3.83,3.83,0,0,1,1.57,1.57,4.84,4.84,0,0,1,.57,2.4,4.89,4.89,0,0,1-.57,2.4,3.9,3.9,0,0,1-1.57,1.55,4.66,4.66,0,0,1-2.26.54,4.73,4.73,0,0,1-2.27-.54A4,4,0,0,1,90.81,203a4.89,4.89,0,0,1-.57-2.4,4.84,4.84,0,0,1,.57-2.4,4,4,0,0,1,1.57-1.57A4.73,4.73,0,0,1,94.65,196.1Zm0,1.28a3,3,0,0,0-1.45.36,2.67,2.67,0,0,0-1.08,1.08,3.74,3.74,0,0,0-.4,1.8,3.79,3.79,0,0,0,.4,1.79,2.77,2.77,0,0,0,1.08,1.07,3.11,3.11,0,0,0,1.45.35,3.07,3.07,0,0,0,1.44-.35,2.57,2.57,0,0,0,1.07-1.07,3.56,3.56,0,0,0,.42-1.79,3.53,3.53,0,0,0-.42-1.8,2.48,2.48,0,0,0-1.07-1.08A3,3,0,0,0,94.65,197.38Zm10.19-3.24a2.32,2.32,0,0,0-1.63.4,1.88,1.88,0,0,0-.45,1.44v.24h2.08v1.28h-2.08V205H101.3v-7.5H100v-1.28h1.26v-.36q0-3.15,3.54-3Zm1.32-.5a.81.81,0,0,1,.27-.64,1,1,0,0,1,.72-.26,1,1,0,0,1,.72.26.79.79,0,0,1,.28.64.85.85,0,0,1-.28.66,1,1,0,0,1-.72.24,1.06,1.06,0,0,1-.72-.24A.88.88,0,0,1,106.16,193.64Zm1.71,2.58V205h-1.45v-8.78Zm6.54,7.5V205h-1.09a2.82,2.82,0,0,1-2-.64,2.94,2.94,0,0,1-.65-2.14v-4.74h-1.32v-1.26h1.32V194h1.47v2.2h2.27v1.26h-2.27v4.77a1.75,1.75,0,0,0,.3,1.17,1.6,1.6,0,0,0,1.09.3Zm5.47-10.08a.81.81,0,0,1,.27-.64,1.13,1.13,0,0,1,1.44,0,.81.81,0,0,1,.27.64.88.88,0,0,1-.27.66,1.2,1.2,0,0,1-1.44,0A.88.88,0,0,1,119.88,193.64Zm1.71,2.58V205h-1.45v-8.78Zm7-.15a3.28,3.28,0,0,1,2.48,1,3.93,3.93,0,0,1,.94,2.84V205h-1.45v-5a2.79,2.79,0,0,0-.68-2,2.38,2.38,0,0,0-1.82-.71,2.49,2.49,0,0,0-1.92.79,3.17,3.17,0,0,0-.72,2.25V205h-1.46v-8.78h1.46v2.08a3,3,0,0,1,1.18-1.65A3.47,3.47,0,0,1,128.56,196.07Zm16.22,6.32h-5l-.95,2.61H137.3l4.18-11.07h1.65L147.29,205h-1.57Zm-.42-1.13-2.06-5.7-2.07,5.7Zm12.21-5V205h-1.46v-2.06a2.93,2.93,0,0,1-1.2,1.64,3.44,3.44,0,0,1-2,.56,3.27,3.27,0,0,1-2.46-1,4,4,0,0,1-.95-2.83v-5.12H150v5a2.84,2.84,0,0,0,.67,2,2.41,2.41,0,0,0,1.82.71,2.52,2.52,0,0,0,1.92-.77,3.24,3.24,0,0,0,.72-2.27v-4.67Zm5.93-.12a3.59,3.59,0,0,1,2.16.64,3.3,3.3,0,0,1,1.25,1.72v-2.24h1.46v8.92a4.32,4.32,0,0,1-.52,2.16,3.73,3.73,0,0,1-1.44,1.48,4.27,4.27,0,0,1-2.16.52,4.56,4.56,0,0,1-2.89-.86,3.75,3.75,0,0,1-1.43-2.3h1.44a2.52,2.52,0,0,0,1,1.37,3.12,3.12,0,0,0,1.84.51,2.68,2.68,0,0,0,2-.76,2.81,2.81,0,0,0,.78-2.12v-2.38a3.27,3.27,0,0,1-1.25,1.71,3.52,3.52,0,0,1-2.16.64,4,4,0,0,1-2.08-.54A3.79,3.79,0,0,1,159,203a5.37,5.37,0,0,1-.51-2.4,5.31,5.31,0,0,1,.51-2.4,3.72,3.72,0,0,1,1.44-1.57A4,4,0,0,1,162.5,196.1Zm.42,1.3a2.84,2.84,0,0,0-2.16.86,3.88,3.88,0,0,0,0,4.72,2.83,2.83,0,0,0,2.16.85,2.89,2.89,0,0,0,1.53-.4,2.84,2.84,0,0,0,1.08-1.12,3.66,3.66,0,0,0,.38-1.69,3.7,3.7,0,0,0-.38-1.7,2.71,2.71,0,0,0-1.08-1.12A2.89,2.89,0,0,0,162.92,197.4Zm14.57-1.18V205H176v-2.06a3,3,0,0,1-1.2,1.64,3.49,3.49,0,0,1-2,.56,3.27,3.27,0,0,1-2.46-1,4,4,0,0,1-.95-2.83v-5.12h1.46v5a2.84,2.84,0,0,0,.67,2,2.42,2.42,0,0,0,1.83.71,2.52,2.52,0,0,0,1.92-.77,3.24,3.24,0,0,0,.72-2.27v-4.67Zm5.09-.12a3.5,3.5,0,0,1,2.38.79,3.16,3.16,0,0,1,1.1,2.08h-1.39a2,2,0,0,0-.65-1.28,2.1,2.1,0,0,0-1.48-.51,1.81,1.81,0,0,0-1.23.38,1.24,1.24,0,0,0-.43,1,1.09,1.09,0,0,0,.29.78,2.25,2.25,0,0,0,.73.45c.3.1.71.2,1.22.32a11.05,11.05,0,0,1,1.57.46,2.4,2.4,0,0,1,1,.74,2.05,2.05,0,0,1,.43,1.38,2.16,2.16,0,0,1-.81,1.74,3.24,3.24,0,0,1-2.15.67,4.16,4.16,0,0,1-2.56-.75,3,3,0,0,1-1.16-2.1h1.4a1.89,1.89,0,0,0,.69,1.3,2.56,2.56,0,0,0,1.63.5,1.64,1.64,0,0,0,1.17-.39,1.27,1.27,0,0,0,.43-1,1.09,1.09,0,0,0-.3-.81,2,2,0,0,0-.75-.47,11.24,11.24,0,0,0-1.23-.33,12.26,12.26,0,0,1-1.57-.45,2.39,2.39,0,0,1-1-.7,2,2,0,0,1-.4-1.33,2.2,2.2,0,0,1,.81-1.78A3.36,3.36,0,0,1,182.58,196.1Zm9.7,7.62V205h-1.09a2.81,2.81,0,0,1-2-.64,2.9,2.9,0,0,1-.66-2.14v-4.74h-1.31v-1.26h1.31V194H190v2.2h2.28v1.26H190v4.77a1.75,1.75,0,0,0,.31,1.17,1.56,1.56,0,0,0,1.09.3Zm5.24.16a23.93,23.93,0,0,0,4.35-3.62,5.2,5.2,0,0,0,1.63-3.36,2.25,2.25,0,0,0-.5-1.53,1.88,1.88,0,0,0-1.56-.59,2,2,0,0,0-1.7.72,3.26,3.26,0,0,0-.64,1.95h-1.44a4.14,4.14,0,0,1,1.17-2.9,3.74,3.74,0,0,1,2.72-1,3.57,3.57,0,0,1,2.51.85,3.07,3.07,0,0,1,.93,2.4,4.91,4.91,0,0,1-.83,2.6,11.82,11.82,0,0,1-2.07,2.45,16.38,16.38,0,0,1-2.54,1.91h5.73v1.2h-7.76Zm9.31-4.59a8.38,8.38,0,0,0,.9,4.24,3.93,3.93,0,0,0,6.21,0,8.27,8.27,0,0,0,.91-4.24,8.17,8.17,0,0,0-.91-4.21,3.93,3.93,0,0,0-6.21,0A8.23,8.23,0,0,0,206.83,199.29Zm6.58,0a10.91,10.91,0,0,1-.21,2.33,2.89,2.89,0,0,1-.75,1.49,2.59,2.59,0,0,1-3.22,0,2.9,2.9,0,0,1-.76-1.49,11.68,11.68,0,0,1-.2-2.33,11.46,11.46,0,0,1,.2-2.31,2.88,2.88,0,0,1,.76-1.47,2.59,2.59,0,0,1,3.22,0,2.87,2.87,0,0,1,.75,1.47A10.71,10.71,0,0,1,213.41,199.29Zm3,4.59a23.26,23.26,0,0,0,4.35-3.62,5.22,5.22,0,0,0,1.64-3.36,2.25,2.25,0,0,0-.5-1.53,1.89,1.89,0,0,0-1.57-.59,2,2,0,0,0-1.69.72,3.2,3.2,0,0,0-.64,1.95h-1.44a4.17,4.17,0,0,1,1.16-2.9,3.78,3.78,0,0,1,2.72-1,3.58,3.58,0,0,1,2.52.85,3.06,3.06,0,0,1,.92,2.4,4.82,4.82,0,0,1-.83,2.6,11.47,11.47,0,0,1-2.06,2.45,16,16,0,0,1-2.55,1.91h5.73v1.2h-7.76Zm9.32-4.59a8.38,8.38,0,0,0,.9,4.24,3.92,3.92,0,0,0,6.2,0,8.26,8.26,0,0,0,.92-4.24,8.17,8.17,0,0,0-.92-4.21,3.92,3.92,0,0,0-6.2,0A8.23,8.23,0,0,0,225.74,199.29Zm6.58,0a10.91,10.91,0,0,1-.21,2.33,2.89,2.89,0,0,1-.75,1.49,2.19,2.19,0,0,1-1.62.56,2.14,2.14,0,0,1-1.6-.56,3,3,0,0,1-.77-1.49,11.76,11.76,0,0,1-.19-2.33,11.54,11.54,0,0,1,.19-2.31,3,3,0,0,1,.77-1.47,2.18,2.18,0,0,1,1.6-.56,2.23,2.23,0,0,1,1.62.56,2.87,2.87,0,0,1,.75,1.47A10.71,10.71,0,0,1,232.32,199.29ZM244,203.72V205h-1.09a2.79,2.79,0,0,1-2-.64,2.9,2.9,0,0,1-.66-2.14v-4.74H238.9v-1.26h1.31V194h1.47v2.2H244v1.26h-2.27v4.77a1.69,1.69,0,0,0,.31,1.17,1.55,1.55,0,0,0,1.08.3Zm5.76-7.62a4.69,4.69,0,0,1,2.26.55,3.75,3.75,0,0,1,1.56,1.57,4.74,4.74,0,0,1,.58,2.4,4.79,4.79,0,0,1-.58,2.4,3.82,3.82,0,0,1-1.56,1.55,5,5,0,0,1-4.53,0,4,4,0,0,1-1.57-1.55,4.9,4.9,0,0,1-.58-2.4,4.84,4.84,0,0,1,.58-2.4,3.89,3.89,0,0,1,1.57-1.57A4.73,4.73,0,0,1,249.73,196.1Zm0,1.28a3.06,3.06,0,0,0-1.46.36,2.71,2.71,0,0,0-1.07,1.08,3.63,3.63,0,0,0-.4,1.8,3.67,3.67,0,0,0,.4,1.79,2.82,2.82,0,0,0,1.07,1.07,3.18,3.18,0,0,0,1.46.35,3.07,3.07,0,0,0,1.44-.35,2.57,2.57,0,0,0,1.07-1.07,3.56,3.56,0,0,0,.42-1.79,3.53,3.53,0,0,0-.42-1.8,2.48,2.48,0,0,0-1.07-1.08A3,3,0,0,0,249.73,197.38Zm15.1-1.28a4,4,0,0,1,2.08.55,3.62,3.62,0,0,1,1.42,1.57,5.18,5.18,0,0,1,.53,2.4,5.24,5.24,0,0,1-.53,2.4,3.68,3.68,0,0,1-1.42,1.55,4,4,0,0,1-2.08.54,3.65,3.65,0,0,1-2.18-.64,3.34,3.34,0,0,1-1.21-1.71v6.4H260V196.22h1.46v2.24a3.27,3.27,0,0,1,1.21-1.7A3.59,3.59,0,0,1,264.83,196.1Zm-.42,1.3a2.94,2.94,0,0,0-1.53.4,2.71,2.71,0,0,0-1.08,1.12,3.7,3.7,0,0,0-.38,1.7,3.66,3.66,0,0,0,.38,1.69,2.84,2.84,0,0,0,1.08,1.12,2.94,2.94,0,0,0,1.53.4,2.8,2.8,0,0,0,2.16-.85,3.81,3.81,0,0,0,0-4.72A2.81,2.81,0,0,0,264.41,197.4Zm7.81.59a3.2,3.2,0,0,1,1.26-1.41,3.75,3.75,0,0,1,2-.51v1.59H275a3.08,3.08,0,0,0-2,.64,2.49,2.49,0,0,0-.78,2.08V205h-1.46v-8.78h1.46Zm8.67-1.89a4.63,4.63,0,0,1,2.25.55,3.77,3.77,0,0,1,1.57,1.57,4.84,4.84,0,0,1,.58,2.4,4.9,4.9,0,0,1-.58,2.4,3.84,3.84,0,0,1-1.57,1.55,4.62,4.62,0,0,1-2.25.54,4.77,4.77,0,0,1-2.28-.54,3.94,3.94,0,0,1-1.56-1.55,4.79,4.79,0,0,1-.58-2.4,4.74,4.74,0,0,1,.58-2.4,3.87,3.87,0,0,1,1.56-1.57A4.77,4.77,0,0,1,280.89,196.1Zm0,1.28a3,3,0,0,0-1.46.36,2.65,2.65,0,0,0-1.07,1.08,3.63,3.63,0,0,0-.4,1.8,3.67,3.67,0,0,0,.4,1.79,2.75,2.75,0,0,0,1.07,1.07,3.15,3.15,0,0,0,1.46.35,3.07,3.07,0,0,0,1.44-.35,2.69,2.69,0,0,0,1.07-1.07,3.56,3.56,0,0,0,.41-1.79,3.53,3.53,0,0,0-.41-1.8,2.59,2.59,0,0,0-1.07-1.08A3,3,0,0,0,280.89,197.38ZM298,196.07a3.22,3.22,0,0,1,2.47,1,3.93,3.93,0,0,1,.94,2.84V205h-1.45v-5a2.84,2.84,0,0,0-.64-2,2.23,2.23,0,0,0-1.73-.69,2.41,2.41,0,0,0-1.86.77,3.17,3.17,0,0,0-.69,2.22V205h-1.45v-5a2.84,2.84,0,0,0-.64-2,2.26,2.26,0,0,0-1.73-.69,2.42,2.42,0,0,0-1.87.77,3.17,3.17,0,0,0-.69,2.22V205h-1.46v-8.78h1.46v2a2.78,2.78,0,0,1,1.14-1.59,3.32,3.32,0,0,1,1.9-.56,3.25,3.25,0,0,1,1.94.58,3,3,0,0,1,1.18,1.66,3.23,3.23,0,0,1,1.23-1.65A3.42,3.42,0,0,1,298,196.07Zm9.66,0a4.63,4.63,0,0,1,2.25.55,3.77,3.77,0,0,1,1.57,1.57,4.84,4.84,0,0,1,.58,2.4,4.9,4.9,0,0,1-.58,2.4,3.84,3.84,0,0,1-1.57,1.55,4.62,4.62,0,0,1-2.25.54,4.77,4.77,0,0,1-2.28-.54A3.94,3.94,0,0,1,303.8,203a4.79,4.79,0,0,1-.58-2.4,4.74,4.74,0,0,1,.58-2.4,3.87,3.87,0,0,1,1.56-1.57A4.77,4.77,0,0,1,307.64,196.1Zm0,1.28a3,3,0,0,0-1.46.36,2.65,2.65,0,0,0-1.07,1.08,3.63,3.63,0,0,0-.4,1.8,3.67,3.67,0,0,0,.4,1.79,2.75,2.75,0,0,0,1.07,1.07,3.15,3.15,0,0,0,1.46.35,3.07,3.07,0,0,0,1.44-.35,2.69,2.69,0,0,0,1.07-1.07,3.56,3.56,0,0,0,.41-1.79,3.53,3.53,0,0,0-.41-1.8,2.59,2.59,0,0,0-1.07-1.08A3,3,0,0,0,307.64,197.38Zm10.49,6.34V205H317a2.82,2.82,0,0,1-2-.64,2.9,2.9,0,0,1-.65-2.14v-4.74h-1.32v-1.26h1.32V194h1.47v2.2h2.27v1.26h-2.27v4.77a1.75,1.75,0,0,0,.3,1.17,1.6,1.6,0,0,0,1.09.3Zm9.85-3.6a4.58,4.58,0,0,1-.06.8h-7a3.16,3.16,0,0,0,.85,2.26,3.09,3.09,0,0,0,3.75.22,2.24,2.24,0,0,0,.88-1.44h1.55a3.7,3.7,0,0,1-.72,1.63,3.55,3.55,0,0,1-1.43,1.12,4.64,4.64,0,0,1-2,.4,4.56,4.56,0,0,1-2.24-.54A4,4,0,0,1,320,203a5.12,5.12,0,0,1-.54-2.4,5.06,5.06,0,0,1,.54-2.4,3.88,3.88,0,0,1,1.54-1.57,4.56,4.56,0,0,1,2.24-.55,4.38,4.38,0,0,1,2.22.55,3.7,3.7,0,0,1,1.46,1.45A4.07,4.07,0,0,1,328,200.12Zm-1.47.1a3,3,0,0,0-.32-1.64,2.31,2.31,0,0,0-1-1,3.09,3.09,0,0,0-1.39-.32,2.89,2.89,0,0,0-2,.75,3,3,0,0,0-.88,2.18ZM30.92,220.1a3.49,3.49,0,0,1,2.38.79A3.21,3.21,0,0,1,34.41,223H33a2,2,0,0,0-.66-1.28,2.05,2.05,0,0,0-1.47-.51,1.79,1.79,0,0,0-1.23.38,1.25,1.25,0,0,0-.44,1,1.09,1.09,0,0,0,.29.78,2.19,2.19,0,0,0,.74.45c.3.1.7.2,1.21.32a10.67,10.67,0,0,1,1.57.46,2.37,2.37,0,0,1,1,.74,2.11,2.11,0,0,1,.43,1.38,2.14,2.14,0,0,1-.82,1.74,3.21,3.21,0,0,1-2.14.67,4.12,4.12,0,0,1-2.56-.75,3,3,0,0,1-1.17-2.1h1.41a1.81,1.81,0,0,0,.69,1.3,2.54,2.54,0,0,0,1.63.5,1.65,1.65,0,0,0,1.17-.39,1.3,1.3,0,0,0,.43-1,1.06,1.06,0,0,0-.31-.81,2,2,0,0,0-.75-.47,11.24,11.24,0,0,0-1.23-.33,12.76,12.76,0,0,1-1.57-.45,2.53,2.53,0,0,1-1-.7,2,2,0,0,1-.4-1.33,2.18,2.18,0,0,1,.82-1.78A3.31,3.31,0,0,1,30.92,220.1Zm13.32.12V229H42.79v-2.06a3,3,0,0,1-1.2,1.64,3.49,3.49,0,0,1-2,.56,3.27,3.27,0,0,1-2.46-1,4,4,0,0,1-1-2.83v-5.12h1.46v5a2.84,2.84,0,0,0,.67,2,2.42,2.42,0,0,0,1.83.71,2.52,2.52,0,0,0,1.92-.77,3.24,3.24,0,0,0,.72-2.27v-4.67Zm5.09-.12a3.5,3.5,0,0,1,2.38.79,3.16,3.16,0,0,1,1.1,2.08H51.42a2,2,0,0,0-.65-1.28,2.1,2.1,0,0,0-1.48-.51,1.81,1.81,0,0,0-1.23.38,1.24,1.24,0,0,0-.43,1,1.09,1.09,0,0,0,.29.78,2.25,2.25,0,0,0,.73.45c.3.1.71.2,1.22.32a11.05,11.05,0,0,1,1.57.46,2.4,2.4,0,0,1,1,.74,2.05,2.05,0,0,1,.43,1.38,2.16,2.16,0,0,1-.81,1.74,3.24,3.24,0,0,1-2.15.67,4.16,4.16,0,0,1-2.56-.75,3,3,0,0,1-1.16-2.1h1.4a1.89,1.89,0,0,0,.69,1.3,2.56,2.56,0,0,0,1.63.5,1.64,1.64,0,0,0,1.17-.39,1.27,1.27,0,0,0,.43-1,1.09,1.09,0,0,0-.3-.81,2,2,0,0,0-.75-.47,11.24,11.24,0,0,0-1.23-.33,12.26,12.26,0,0,1-1.57-.45,2.39,2.39,0,0,1-1-.7,2,2,0,0,1-.4-1.33,2.2,2.2,0,0,1,.81-1.78A3.36,3.36,0,0,1,49.33,220.1Zm9.7,7.62V229H57.94a2.81,2.81,0,0,1-2-.64,2.9,2.9,0,0,1-.66-2.14v-4.74H54v-1.26h1.31V218h1.47v2.2H59v1.26H56.74v4.77a1.75,1.75,0,0,0,.31,1.17,1.56,1.56,0,0,0,1.09.3Zm5.38-7.62a3.63,3.63,0,0,1,2.16.64,3.35,3.35,0,0,1,1.25,1.72v-2.24h1.45V229H67.82v-2.24a3.33,3.33,0,0,1-1.25,1.71,3.57,3.57,0,0,1-2.16.64,4,4,0,0,1-2.08-.54A3.79,3.79,0,0,1,60.89,227a5.37,5.37,0,0,1-.51-2.4,5.31,5.31,0,0,1,.51-2.4,3.72,3.72,0,0,1,1.44-1.57A4,4,0,0,1,64.41,220.1Zm.41,1.3a2.87,2.87,0,0,0-2.16.86,3.88,3.88,0,0,0,0,4.72,2.86,2.86,0,0,0,2.16.85,2.92,2.92,0,0,0,1.54-.4,2.75,2.75,0,0,0,1.07-1.12,3.54,3.54,0,0,0,.39-1.69,3.58,3.58,0,0,0-.39-1.7,2.63,2.63,0,0,0-1.07-1.12A2.92,2.92,0,0,0,64.82,221.4Zm6.51-3.76a.79.79,0,0,1,.28-.64,1,1,0,0,1,.72-.26,1,1,0,0,1,.72.26.81.81,0,0,1,.27.64.88.88,0,0,1-.27.66,1.08,1.08,0,0,1-.72.24,1,1,0,0,1-.72-.24A.85.85,0,0,1,71.33,217.64Zm1.72,2.58V229H71.59v-8.78Zm7-.15a3.28,3.28,0,0,1,2.48,1,3.93,3.93,0,0,1,.94,2.84V229H82v-5a2.83,2.83,0,0,0-.67-2,2.42,2.42,0,0,0-1.83-.71,2.49,2.49,0,0,0-1.92.79,3.17,3.17,0,0,0-.72,2.25V229H75.39v-8.78h1.45v2.08A3,3,0,0,1,78,220.65,3.42,3.42,0,0,1,80,220.07Zm9.26,0a3.63,3.63,0,0,1,2.16.64,3.35,3.35,0,0,1,1.25,1.72v-2.24h1.45V229H92.68v-2.24a3.33,3.33,0,0,1-1.25,1.71,3.57,3.57,0,0,1-2.16.64,4,4,0,0,1-2.08-.54A3.79,3.79,0,0,1,85.75,227a5.37,5.37,0,0,1-.51-2.4,5.31,5.31,0,0,1,.51-2.4,3.72,3.72,0,0,1,1.44-1.57A4,4,0,0,1,89.27,220.1Zm.41,1.3a2.87,2.87,0,0,0-2.16.86,3.88,3.88,0,0,0,0,4.72,2.86,2.86,0,0,0,2.16.85,2.92,2.92,0,0,0,1.54-.4,2.75,2.75,0,0,0,1.07-1.12,3.54,3.54,0,0,0,.39-1.69,3.58,3.58,0,0,0-.39-1.7,2.63,2.63,0,0,0-1.07-1.12A2.92,2.92,0,0,0,89.68,221.4Zm11.62-1.3a4,4,0,0,1,2.08.55,3.62,3.62,0,0,1,1.42,1.57,5.18,5.18,0,0,1,.53,2.4,5.24,5.24,0,0,1-.53,2.4,3.68,3.68,0,0,1-1.42,1.55,4,4,0,0,1-2.08.54,3.63,3.63,0,0,1-2.18-.64,3.28,3.28,0,0,1-1.21-1.71V229H96.45V217.16h1.46v5.3a3.22,3.22,0,0,1,1.21-1.7A3.57,3.57,0,0,1,101.3,220.1Zm-.42,1.3a2.94,2.94,0,0,0-1.53.4,2.71,2.71,0,0,0-1.08,1.12,3.7,3.7,0,0,0-.38,1.7,3.66,3.66,0,0,0,.38,1.69,2.84,2.84,0,0,0,1.08,1.12,2.94,2.94,0,0,0,1.53.4A2.8,2.8,0,0,0,103,227a3.81,3.81,0,0,0,0-4.72A2.81,2.81,0,0,0,100.88,221.4Zm7.81-4.24V229h-1.46V217.16Zm10.42,7a3.72,3.72,0,0,1-.07.8h-7a3.07,3.07,0,0,0,.85,2.26,2.81,2.81,0,0,0,2,.75,2.85,2.85,0,0,0,1.76-.53,2.2,2.2,0,0,0,.88-1.44H119a3.72,3.72,0,0,1-2.14,2.75,4.7,4.7,0,0,1-2,.4,4.53,4.53,0,0,1-2.24-.54,3.89,3.89,0,0,1-1.54-1.55,5.12,5.12,0,0,1-.54-2.4,5.06,5.06,0,0,1,.54-2.4,3.82,3.82,0,0,1,1.54-1.57,4.53,4.53,0,0,1,2.24-.55,4.4,4.4,0,0,1,2.22.55,3.77,3.77,0,0,1,1.46,1.45A4.07,4.07,0,0,1,119.11,224.12Zm-1.47.1a3.09,3.09,0,0,0-.32-1.64,2.42,2.42,0,0,0-1-1,3.12,3.12,0,0,0-1.39-.32,2.85,2.85,0,0,0-2,.75,3,3,0,0,0-.88,2.18Zm10.08-4.12a3.5,3.5,0,0,1,2.38.79,3.21,3.21,0,0,1,1.11,2.08h-1.4a2,2,0,0,0-.65-1.28,2.1,2.1,0,0,0-1.48-.51,1.81,1.81,0,0,0-1.23.38,1.27,1.27,0,0,0-.43,1,1.09,1.09,0,0,0,.29.78,2.25,2.25,0,0,0,.73.45c.3.1.71.2,1.22.32a11.05,11.05,0,0,1,1.57.46,2.34,2.34,0,0,1,1,.74,2.06,2.06,0,0,1,.44,1.38,2.17,2.17,0,0,1-.82,1.74,3.22,3.22,0,0,1-2.15.67,4.16,4.16,0,0,1-2.56-.75,3,3,0,0,1-1.16-2.1H126a1.89,1.89,0,0,0,.69,1.3,2.56,2.56,0,0,0,1.63.5,1.62,1.62,0,0,0,1.17-.39,1.27,1.27,0,0,0,.44-1,1.1,1.1,0,0,0-.31-.81,2,2,0,0,0-.75-.47,11.24,11.24,0,0,0-1.23-.33,12.26,12.26,0,0,1-1.57-.45,2.39,2.39,0,0,1-1-.7,2,2,0,0,1-.4-1.33,2.2,2.2,0,0,1,.81-1.78A3.36,3.36,0,0,1,127.72,220.1Zm9.49,0a4.64,4.64,0,0,1,2.26.55,3.83,3.83,0,0,1,1.57,1.57,4.84,4.84,0,0,1,.58,2.4A4.9,4.9,0,0,1,141,227a3.9,3.9,0,0,1-1.57,1.55,4.63,4.63,0,0,1-2.26.54,4.76,4.76,0,0,1-2.27-.54,3.94,3.94,0,0,1-1.56-1.55,4.79,4.79,0,0,1-.58-2.4,4.74,4.74,0,0,1,.58-2.4,3.87,3.87,0,0,1,1.56-1.57A4.76,4.76,0,0,1,137.21,220.1Zm0,1.28a3,3,0,0,0-1.45.36,2.59,2.59,0,0,0-1.07,1.08,3.63,3.63,0,0,0-.4,1.8,3.67,3.67,0,0,0,.4,1.79,2.69,2.69,0,0,0,1.07,1.07,3.14,3.14,0,0,0,1.45.35,3,3,0,0,0,1.44-.35,2.65,2.65,0,0,0,1.08-1.07,3.67,3.67,0,0,0,.41-1.79,3.63,3.63,0,0,0-.41-1.8,2.56,2.56,0,0,0-1.08-1.08A2.9,2.9,0,0,0,137.21,221.38Zm10.19-1.28a4.24,4.24,0,0,1,2.78.9,3.79,3.79,0,0,1,1.36,2.4H150a2.21,2.21,0,0,0-.88-1.47,3,3,0,0,0-3.17-.19,2.53,2.53,0,0,0-1,1.08,3.87,3.87,0,0,0-.38,1.8,3.93,3.93,0,0,0,.38,1.8,2.65,2.65,0,0,0,1,1.08,3,3,0,0,0,1.41.35,2.76,2.76,0,0,0,1.76-.55,2.25,2.25,0,0,0,.88-1.48h1.53a3.79,3.79,0,0,1-1.36,2.41,4.28,4.28,0,0,1-2.78.88,4.56,4.56,0,0,1-2.24-.54,4,4,0,0,1-1.54-1.55,5.12,5.12,0,0,1-.54-2.4,5.06,5.06,0,0,1,.54-2.4,3.88,3.88,0,0,1,1.54-1.57A4.56,4.56,0,0,1,147.4,220.1Zm5.79-2.46a.81.81,0,0,1,.27-.64,1,1,0,0,1,.72-.26,1,1,0,0,1,.72.26.79.79,0,0,1,.28.64.85.85,0,0,1-.28.66,1,1,0,0,1-.72.24,1.08,1.08,0,0,1-.72-.24A.88.88,0,0,1,153.19,217.64Zm1.71,2.58V229h-1.45v-8.78Zm5.95-.12a3.63,3.63,0,0,1,2.16.64,3.33,3.33,0,0,1,1.24,1.72v-2.24h1.46V229h-1.46v-2.24a3.31,3.31,0,0,1-1.24,1.71,3.57,3.57,0,0,1-2.16.64,4,4,0,0,1-2.08-.54,3.79,3.79,0,0,1-1.44-1.55,5.37,5.37,0,0,1-.52-2.4,5.31,5.31,0,0,1,.52-2.4,3.72,3.72,0,0,1,1.44-1.57A4,4,0,0,1,160.85,220.1Zm.41,1.3a2.87,2.87,0,0,0-2.16.86,3.88,3.88,0,0,0,0,4.72,2.86,2.86,0,0,0,2.16.85,2.92,2.92,0,0,0,1.54-.4,2.82,2.82,0,0,0,1.07-1.12,3.54,3.54,0,0,0,.38-1.69,3.58,3.58,0,0,0-.38-1.7,2.69,2.69,0,0,0-1.07-1.12A2.92,2.92,0,0,0,161.26,221.4Zm8.22-4.24V229H168V217.16Zm6,.48a.81.81,0,0,1,.27-.64,1,1,0,0,1,.72-.26,1,1,0,0,1,.72.26.82.82,0,0,1,.28.64.89.89,0,0,1-.28.66,1,1,0,0,1-.72.24,1.06,1.06,0,0,1-.72-.24A.88.88,0,0,1,175.52,217.64Zm1.71,2.58V229h-1.45v-8.78Zm7-.15a3.28,3.28,0,0,1,2.48,1,3.93,3.93,0,0,1,.94,2.84V229h-1.45v-5a2.79,2.79,0,0,0-.68-2,2.38,2.38,0,0,0-1.82-.71,2.49,2.49,0,0,0-1.92.79,3.17,3.17,0,0,0-.72,2.25V229h-1.46v-8.78H181v2.08a3,3,0,0,1,1.18-1.65A3.47,3.47,0,0,1,184.2,220.07Zm5.4-2.43a.81.81,0,0,1,.27-.64,1.13,1.13,0,0,1,1.44,0,.81.81,0,0,1,.27.64.88.88,0,0,1-.27.66,1.2,1.2,0,0,1-1.44,0A.88.88,0,0,1,189.6,217.64Zm1.71,2.58V229h-1.45v-8.78Zm6.53,7.5V229h-1.08a2.82,2.82,0,0,1-2-.64,2.9,2.9,0,0,1-.66-2.14v-4.74h-1.31v-1.26h1.31V218h1.48v2.2h2.27v1.26h-2.27v4.77a1.75,1.75,0,0,0,.3,1.17,1.58,1.58,0,0,0,1.09.3Zm1.53-10.08a.81.81,0,0,1,.27-.64,1.13,1.13,0,0,1,1.44,0,.81.81,0,0,1,.27.64.88.88,0,0,1-.27.66,1.2,1.2,0,0,1-1.44,0A.88.88,0,0,1,199.37,217.64Zm1.71,2.58V229h-1.46v-8.78Zm5.94-.12a3.63,3.63,0,0,1,2.16.64,3.41,3.41,0,0,1,1.25,1.72v-2.24h1.45V229h-1.45v-2.24a3.38,3.38,0,0,1-1.25,1.71,3.57,3.57,0,0,1-2.16.64,4,4,0,0,1-2.08-.54A3.79,3.79,0,0,1,203.5,227a5.37,5.37,0,0,1-.51-2.4,5.31,5.31,0,0,1,.51-2.4,3.72,3.72,0,0,1,1.44-1.57A4,4,0,0,1,207,220.1Zm.41,1.3a2.87,2.87,0,0,0-2.16.86,3.88,3.88,0,0,0,0,4.72,2.86,2.86,0,0,0,2.16.85,2.92,2.92,0,0,0,1.54-.4,2.75,2.75,0,0,0,1.07-1.12,3.54,3.54,0,0,0,.39-1.69,3.58,3.58,0,0,0-.39-1.7A2.63,2.63,0,0,0,209,221.8,2.92,2.92,0,0,0,207.43,221.4Zm11,6.32V229H217.3a2.81,2.81,0,0,1-2-.64,2.9,2.9,0,0,1-.66-2.14v-4.74h-1.31v-1.26h1.31V218h1.47v2.2h2.28v1.26H216.1v4.77a1.75,1.75,0,0,0,.31,1.17,1.55,1.55,0,0,0,1.08.3Zm1.52-10.08a.81.81,0,0,1,.27-.64,1,1,0,0,1,.72-.26,1,1,0,0,1,.72.26.82.82,0,0,1,.28.64.89.89,0,0,1-.28.66,1,1,0,0,1-.72.24,1.06,1.06,0,0,1-.72-.24A.88.88,0,0,1,219.91,217.64Zm1.71,2.58V229h-1.45v-8.78Zm5.75,7.23,2.72-7.23h1.57L228.22,229h-1.73l-3.44-8.78h1.57Zm13.8-3.33a4.58,4.58,0,0,1-.06.8h-7a3.12,3.12,0,0,0,.85,2.26,3.08,3.08,0,0,0,3.74.22,2.2,2.2,0,0,0,.88-1.44h1.56a3.7,3.7,0,0,1-.72,1.63,3.62,3.62,0,0,1-1.43,1.12,4.67,4.67,0,0,1-2,.4,4.53,4.53,0,0,1-2.24-.54A3.89,3.89,0,0,1,233.2,227a5.12,5.12,0,0,1-.54-2.4,5.06,5.06,0,0,1,.54-2.4,3.82,3.82,0,0,1,1.54-1.57,4.53,4.53,0,0,1,2.24-.55,4.4,4.4,0,0,1,2.22.55,3.7,3.7,0,0,1,1.46,1.45A4.07,4.07,0,0,1,241.17,224.12Zm-1.47.1a3.09,3.09,0,0,0-.32-1.64,2.36,2.36,0,0,0-1-1,3.12,3.12,0,0,0-1.39-.32,2.89,2.89,0,0,0-2,.75,3,3,0,0,0-.88,2.18Zm6.13-4.12a3.5,3.5,0,0,1,2.38.79,3.16,3.16,0,0,1,1.1,2.08h-1.39a2,2,0,0,0-.65-1.28,2.1,2.1,0,0,0-1.48-.51,1.81,1.81,0,0,0-1.23.38,1.24,1.24,0,0,0-.43,1,1.09,1.09,0,0,0,.29.78,2.25,2.25,0,0,0,.73.45c.3.1.71.2,1.22.32a11.05,11.05,0,0,1,1.57.46,2.4,2.4,0,0,1,1,.74,2.05,2.05,0,0,1,.43,1.38,2.16,2.16,0,0,1-.81,1.74,3.24,3.24,0,0,1-2.15.67,4.16,4.16,0,0,1-2.56-.75,3,3,0,0,1-1.16-2.1h1.4a1.89,1.89,0,0,0,.69,1.3,2.56,2.56,0,0,0,1.63.5,1.64,1.64,0,0,0,1.17-.39,1.27,1.27,0,0,0,.43-1,1.09,1.09,0,0,0-.3-.81,2,2,0,0,0-.75-.47,11.24,11.24,0,0,0-1.23-.33,12.26,12.26,0,0,1-1.57-.45,2.39,2.39,0,0,1-1-.7,2,2,0,0,1-.4-1.33,2.2,2.2,0,0,1,.81-1.78A3.36,3.36,0,0,1,245.83,220.1Zm9.21-2.46a.81.81,0,0,1,.27-.64,1.13,1.13,0,0,1,1.44,0,.81.81,0,0,1,.27.64.88.88,0,0,1-.27.66,1.2,1.2,0,0,1-1.44,0A.88.88,0,0,1,255,217.64Zm1.71,2.58V229h-1.46v-8.78Zm7-.15a3.25,3.25,0,0,1,2.48,1,3.93,3.93,0,0,1,.95,2.84V229h-1.46v-5a2.79,2.79,0,0,0-.67-2,2.41,2.41,0,0,0-1.82-.71,2.49,2.49,0,0,0-1.92.79,3.17,3.17,0,0,0-.72,2.25V229h-1.46v-8.78h1.46v2.08a3,3,0,0,1,1.18-1.65A3.46,3.46,0,0,1,263.71,220.07Zm17.69,4.05a4.58,4.58,0,0,1-.06.8h-7a3.11,3.11,0,0,0,.84,2.26,3.09,3.09,0,0,0,3.75.22,2.24,2.24,0,0,0,.88-1.44h1.55a3.7,3.7,0,0,1-.72,1.63,3.59,3.59,0,0,1-1.42,1.12,4.72,4.72,0,0,1-2,.4,4.56,4.56,0,0,1-2.24-.54,3.87,3.87,0,0,1-1.53-1.55,5,5,0,0,1-.55-2.4,5,5,0,0,1,.55-2.4,3.8,3.8,0,0,1,1.53-1.57,4.56,4.56,0,0,1,2.24-.55,4.41,4.41,0,0,1,2.23.55,3.68,3.68,0,0,1,1.45,1.45A4.07,4.07,0,0,1,281.4,224.12Zm-1.47.1a3,3,0,0,0-.32-1.64,2.31,2.31,0,0,0-1-1,3.09,3.09,0,0,0-1.39-.32,2.85,2.85,0,0,0-2,.75,3,3,0,0,0-.88,2.18Zm7-4.12a3.63,3.63,0,0,1,2.16.64,3.35,3.35,0,0,1,1.25,1.72v-5.3h1.45V229h-1.45v-2.24a3.33,3.33,0,0,1-1.25,1.71,3.57,3.57,0,0,1-2.16.64,4,4,0,0,1-2.08-.54,3.79,3.79,0,0,1-1.44-1.55,5.37,5.37,0,0,1-.51-2.4,5.31,5.31,0,0,1,.51-2.4,3.72,3.72,0,0,1,1.44-1.57A4,4,0,0,1,286.91,220.1Zm.42,1.3a2.84,2.84,0,0,0-2.16.86,3.84,3.84,0,0,0,0,4.72,2.83,2.83,0,0,0,2.16.85,2.91,2.91,0,0,0,1.53-.4,2.75,2.75,0,0,0,1.07-1.12,3.54,3.54,0,0,0,.39-1.69,3.58,3.58,0,0,0-.39-1.7,2.63,2.63,0,0,0-1.07-1.12A2.91,2.91,0,0,0,287.33,221.4Zm14.57-1.18V229h-1.46v-2.06a2.93,2.93,0,0,1-1.2,1.64,3.44,3.44,0,0,1-2,.56,3.28,3.28,0,0,1-2.47-1,4,4,0,0,1-.94-2.83v-5.12h1.46v5a2.84,2.84,0,0,0,.67,2,2.39,2.39,0,0,0,1.82.71,2.52,2.52,0,0,0,1.92-.77,3.24,3.24,0,0,0,.72-2.27v-4.67Zm6.22-.12a4.24,4.24,0,0,1,2.78.9,3.79,3.79,0,0,1,1.36,2.4h-1.53a2.21,2.21,0,0,0-.88-1.47,3,3,0,0,0-3.17-.19,2.53,2.53,0,0,0-1,1.08,3.87,3.87,0,0,0-.38,1.8,3.93,3.93,0,0,0,.38,1.8,2.65,2.65,0,0,0,1,1.08,3,3,0,0,0,1.41.35,2.76,2.76,0,0,0,1.76-.55,2.25,2.25,0,0,0,.88-1.48h1.53a3.79,3.79,0,0,1-1.36,2.41,4.28,4.28,0,0,1-2.78.88,4.56,4.56,0,0,1-2.24-.54,4,4,0,0,1-1.54-1.55,5.12,5.12,0,0,1-.54-2.4,5.06,5.06,0,0,1,.54-2.4,3.88,3.88,0,0,1,1.54-1.57A4.56,4.56,0,0,1,308.12,220.1Zm9.65,0a3.63,3.63,0,0,1,2.16.64,3.41,3.41,0,0,1,1.25,1.72v-2.24h1.45V229h-1.45v-2.24a3.38,3.38,0,0,1-1.25,1.71,3.57,3.57,0,0,1-2.16.64,4,4,0,0,1-2.08-.54,3.79,3.79,0,0,1-1.44-1.55,5.37,5.37,0,0,1-.51-2.4,5.31,5.31,0,0,1,.51-2.4,3.72,3.72,0,0,1,1.44-1.57A4,4,0,0,1,317.77,220.1Zm.41,1.3a2.87,2.87,0,0,0-2.16.86,3.88,3.88,0,0,0,0,4.72,2.86,2.86,0,0,0,2.16.85,2.92,2.92,0,0,0,1.54-.4,2.75,2.75,0,0,0,1.07-1.12,3.54,3.54,0,0,0,.39-1.69,3.58,3.58,0,0,0-.39-1.7,2.63,2.63,0,0,0-1.07-1.12A2.92,2.92,0,0,0,318.18,221.4Zm11,6.32V229h-1.09a2.79,2.79,0,0,1-2-.64,2.9,2.9,0,0,1-.66-2.14v-4.74h-1.31v-1.26h1.31V218h1.47v2.2h2.27v1.26h-2.27v4.77a1.69,1.69,0,0,0,.31,1.17,1.55,1.55,0,0,0,1.08.3Zm1.52-10.08a.81.81,0,0,1,.27-.64,1,1,0,0,1,.72-.26,1,1,0,0,1,.72.26.82.82,0,0,1,.28.64.89.89,0,0,1-.28.66,1,1,0,0,1-.72.24,1.06,1.06,0,0,1-.72-.24A.88.88,0,0,1,330.66,217.64Zm1.71,2.58V229h-1.45v-8.78Zm6.33-.12a4.63,4.63,0,0,1,2.25.55,3.72,3.72,0,0,1,1.57,1.57,4.74,4.74,0,0,1,.58,2.4,4.79,4.79,0,0,1-.58,2.4,3.78,3.78,0,0,1-1.57,1.55,4.62,4.62,0,0,1-2.25.54,4.73,4.73,0,0,1-2.27-.54,4,4,0,0,1-1.57-1.55,4.9,4.9,0,0,1-.58-2.4,4.84,4.84,0,0,1,.58-2.4,3.89,3.89,0,0,1,1.57-1.57A4.73,4.73,0,0,1,338.7,220.1Zm0,1.28a3.06,3.06,0,0,0-1.46.36,2.71,2.71,0,0,0-1.07,1.08,3.63,3.63,0,0,0-.4,1.8,3.67,3.67,0,0,0,.4,1.79,2.82,2.82,0,0,0,1.07,1.07,3.18,3.18,0,0,0,1.46.35,3.07,3.07,0,0,0,1.44-.35,2.62,2.62,0,0,0,1.07-1.07,3.56,3.56,0,0,0,.42-1.79,3.53,3.53,0,0,0-.42-1.8,2.53,2.53,0,0,0-1.07-1.08A3,3,0,0,0,338.7,221.38Zm10.92-1.31a3.28,3.28,0,0,1,2.48,1,3.93,3.93,0,0,1,.94,2.84V229h-1.45v-5a2.83,2.83,0,0,0-.67-2,2.42,2.42,0,0,0-1.83-.71,2.49,2.49,0,0,0-1.92.79,3.17,3.17,0,0,0-.72,2.25V229H345v-8.78h1.45v2.08a3,3,0,0,1,1.19-1.65A3.42,3.42,0,0,1,349.62,220.07Zm6.5,7.86a4.36,4.36,0,0,1,.23,1.31,2,2,0,0,1-.42,1.33,1.5,1.5,0,0,1-1.25.51v-.62a.7.7,0,0,0,.58-.23,1,1,0,0,0,.19-.67v-.14h-.81v-1.49ZM32.79,244.07a3.26,3.26,0,0,1,2.48,1,3.93,3.93,0,0,1,.95,2.84V253H34.76v-5a2.79,2.79,0,0,0-.67-2,2.42,2.42,0,0,0-1.83-.71,2.49,2.49,0,0,0-1.92.79,3.17,3.17,0,0,0-.72,2.25V253H28.17V241.16h1.45v5.14a3,3,0,0,1,1.19-1.65A3.44,3.44,0,0,1,32.79,244.07Zm13.74,4.05a4.58,4.58,0,0,1-.06.8h-7a3.12,3.12,0,0,0,.85,2.26,2.81,2.81,0,0,0,2,.75A2.85,2.85,0,0,0,44,251.4a2.2,2.2,0,0,0,.88-1.44h1.56a3.7,3.7,0,0,1-.72,1.63,3.62,3.62,0,0,1-1.43,1.12,4.7,4.7,0,0,1-2,.4,4.53,4.53,0,0,1-2.24-.54A3.89,3.89,0,0,1,38.56,251a5.12,5.12,0,0,1-.54-2.4,5.06,5.06,0,0,1,.54-2.4,3.82,3.82,0,0,1,1.54-1.57,4.53,4.53,0,0,1,2.24-.55,4.4,4.4,0,0,1,2.22.55A3.7,3.7,0,0,1,46,246.1,4.07,4.07,0,0,1,46.53,248.12Zm-1.47.1a3.09,3.09,0,0,0-.32-1.64,2.36,2.36,0,0,0-1-1,3.12,3.12,0,0,0-1.39-.32,2.89,2.89,0,0,0-2,.75,3,3,0,0,0-.88,2.18Zm7-4.12a3.59,3.59,0,0,1,2.16.64,3.3,3.3,0,0,1,1.25,1.72v-2.24H56.9V253H55.44v-2.24a3.27,3.27,0,0,1-1.25,1.71,3.52,3.52,0,0,1-2.16.64,4,4,0,0,1-2.08-.54A3.93,3.93,0,0,1,48.51,251a5.37,5.37,0,0,1-.51-2.4,5.31,5.31,0,0,1,.51-2.4A3.85,3.85,0,0,1,50,244.65,4,4,0,0,1,52,244.1Zm.42,1.3a2.84,2.84,0,0,0-2.16.86,3.88,3.88,0,0,0,0,4.72,2.83,2.83,0,0,0,2.16.85,2.92,2.92,0,0,0,1.54-.4,2.88,2.88,0,0,0,1.07-1.12,3.66,3.66,0,0,0,.38-1.69,3.7,3.7,0,0,0-.38-1.7A2.75,2.75,0,0,0,54,245.8,2.92,2.92,0,0,0,52.45,245.4Zm8.22-4.24V253H59.21V241.16Zm6.53,10.56V253H66.12a2.82,2.82,0,0,1-2-.64,2.9,2.9,0,0,1-.66-2.14v-4.74H62.13v-1.26h1.31V242h1.48v2.2h2.27v1.26H64.92v4.77a1.75,1.75,0,0,0,.3,1.17,1.58,1.58,0,0,0,1.09.3Zm6.4-7.65a3.25,3.25,0,0,1,2.48,1,3.93,3.93,0,0,1,1,2.84V253H75.57v-5a2.79,2.79,0,0,0-.67-2,2.41,2.41,0,0,0-1.82-.71,2.49,2.49,0,0,0-1.92.79,3.17,3.17,0,0,0-.72,2.25V253H69V241.16h1.46v5.14a3,3,0,0,1,1.18-1.65A3.46,3.46,0,0,1,73.6,244.07Zm6.51,7.86a4.33,4.33,0,0,1,.22,1.31,2,2,0,0,1-.41,1.33,1.53,1.53,0,0,1-1.25.51v-.62a.7.7,0,0,0,.58-.23,1,1,0,0,0,.19-.67v-.14h-.82v-1.49Zm14-3.81a4.58,4.58,0,0,1-.06.8H87a3.16,3.16,0,0,0,.85,2.26,3.09,3.09,0,0,0,3.75.22,2.24,2.24,0,0,0,.88-1.44H94a3.7,3.7,0,0,1-.72,1.63,3.55,3.55,0,0,1-1.43,1.12,4.64,4.64,0,0,1-2,.4,4.56,4.56,0,0,1-2.24-.54A4,4,0,0,1,86.12,251a5.12,5.12,0,0,1-.54-2.4,5.06,5.06,0,0,1,.54-2.4,3.88,3.88,0,0,1,1.54-1.57,4.56,4.56,0,0,1,2.24-.55,4.4,4.4,0,0,1,2.22.55,3.7,3.7,0,0,1,1.46,1.45A4.07,4.07,0,0,1,94.09,248.12Zm-1.47.1a3,3,0,0,0-.32-1.64,2.36,2.36,0,0,0-1-1,3.09,3.09,0,0,0-1.39-.32,2.89,2.89,0,0,0-2,.75,3,3,0,0,0-.88,2.18Zm8-4.15a3.28,3.28,0,0,1,2.48,1,3.93,3.93,0,0,1,.94,2.84V253h-1.45v-5a2.83,2.83,0,0,0-.67-2,2.42,2.42,0,0,0-1.83-.71,2.49,2.49,0,0,0-1.92.79,3.17,3.17,0,0,0-.72,2.25V253H96v-8.78h1.45v2.08a3,3,0,0,1,1.19-1.65A3.42,3.42,0,0,1,100.62,244.07Zm9.85,7.65V253h-1.09a2.83,2.83,0,0,1-2-.64,2.94,2.94,0,0,1-.65-2.14v-4.74H105.4v-1.26h1.31V242h1.47v2.2h2.27v1.26h-2.27v4.77a1.69,1.69,0,0,0,.31,1.17,1.55,1.55,0,0,0,1.08.3Zm9.86-3.6a3.72,3.72,0,0,1-.07.8h-7a3.07,3.07,0,0,0,.85,2.26,2.81,2.81,0,0,0,2,.75,2.87,2.87,0,0,0,1.76-.53,2.24,2.24,0,0,0,.88-1.44h1.55a3.59,3.59,0,0,1-.72,1.63,3.52,3.52,0,0,1-1.42,1.12,4.72,4.72,0,0,1-2,.4,4.56,4.56,0,0,1-2.24-.54,3.87,3.87,0,0,1-1.53-1.55,5.12,5.12,0,0,1-.55-2.4,5.06,5.06,0,0,1,.55-2.4,3.8,3.8,0,0,1,1.53-1.57,4.56,4.56,0,0,1,2.24-.55,4.41,4.41,0,0,1,2.23.55,3.68,3.68,0,0,1,1.45,1.45A4.08,4.08,0,0,1,120.33,248.12Zm-1.48.1a2.91,2.91,0,0,0-.32-1.64,2.34,2.34,0,0,0-1-1,3.13,3.13,0,0,0-1.4-.32,2.85,2.85,0,0,0-2,.75,3,3,0,0,0-.88,2.18Zm4.84-2.23a3.15,3.15,0,0,1,1.26-1.41,3.72,3.72,0,0,1,2-.51v1.59h-.44a3.08,3.08,0,0,0-2,.64,2.49,2.49,0,0,0-.78,2.08V253h-1.46v-8.78h1.46Zm9.53-1.89a4,4,0,0,1,2.08.55,3.62,3.62,0,0,1,1.42,1.57,5.18,5.18,0,0,1,.53,2.4,5.24,5.24,0,0,1-.53,2.4,3.68,3.68,0,0,1-1.42,1.55,4,4,0,0,1-2.08.54,3.65,3.65,0,0,1-2.18-.64,3.34,3.34,0,0,1-1.21-1.71v6.4h-1.46V244.22h1.46v2.24a3.27,3.27,0,0,1,1.21-1.7A3.59,3.59,0,0,1,133.22,244.1Zm-.42,1.3a3,3,0,0,0-1.53.4,2.63,2.63,0,0,0-1.07,1.12,3.58,3.58,0,0,0-.39,1.7,3.54,3.54,0,0,0,.39,1.69,2.75,2.75,0,0,0,1.07,1.12,3,3,0,0,0,1.53.4A2.8,2.8,0,0,0,135,251a3.81,3.81,0,0,0,0-4.72A2.81,2.81,0,0,0,132.8,245.4Zm7.81.59a3.2,3.2,0,0,1,1.26-1.41,3.75,3.75,0,0,1,2-.51v1.59h-.45a3.08,3.08,0,0,0-2,.64,2.49,2.49,0,0,0-.78,2.08V253h-1.46v-8.78h1.46Zm4.43-4.35a.81.81,0,0,1,.27-.64,1.13,1.13,0,0,1,1.44,0,.81.81,0,0,1,.27.64.88.88,0,0,1-.27.66,1.2,1.2,0,0,1-1.44,0A.88.88,0,0,1,145,241.64Zm1.71,2.58V253h-1.46v-8.78Zm5.09-.12a3.53,3.53,0,0,1,2.39.79,3.24,3.24,0,0,1,1.1,2.08h-1.39a2,2,0,0,0-.66-1.28,2.05,2.05,0,0,0-1.47-.51,1.81,1.81,0,0,0-1.23.38,1.24,1.24,0,0,0-.43,1,1.08,1.08,0,0,0,.28.78,2.29,2.29,0,0,0,.74.45c.3.1.7.2,1.22.32a10.49,10.49,0,0,1,1.56.46,2.37,2.37,0,0,1,1,.74,2.05,2.05,0,0,1,.43,1.38,2.14,2.14,0,0,1-.82,1.74,3.19,3.19,0,0,1-2.14.67,4.12,4.12,0,0,1-2.56-.75,3,3,0,0,1-1.17-2.1h1.41a1.81,1.81,0,0,0,.69,1.3,2.54,2.54,0,0,0,1.63.5,1.65,1.65,0,0,0,1.17-.39,1.27,1.27,0,0,0,.43-1,1.09,1.09,0,0,0-.3-.81,2.17,2.17,0,0,0-.76-.47,10.1,10.1,0,0,0-1.23-.33,12.76,12.76,0,0,1-1.57-.45,2.53,2.53,0,0,1-1-.7,2,2,0,0,1-.4-1.33,2.18,2.18,0,0,1,.82-1.78A3.31,3.31,0,0,1,151.84,244.1Zm13.6,4a4.49,4.49,0,0,1-.07.8h-7a3.07,3.07,0,0,0,.85,2.26,2.81,2.81,0,0,0,2,.75,2.87,2.87,0,0,0,1.76-.53,2.24,2.24,0,0,0,.88-1.44h1.55a3.7,3.7,0,0,1-.72,1.63,3.59,3.59,0,0,1-1.42,1.12,4.72,4.72,0,0,1-2,.4,4.56,4.56,0,0,1-2.24-.54,3.87,3.87,0,0,1-1.53-1.55,5,5,0,0,1-.55-2.4,5,5,0,0,1,.55-2.4,3.8,3.8,0,0,1,1.53-1.57,4.56,4.56,0,0,1,2.24-.55,4.41,4.41,0,0,1,2.23.55,3.68,3.68,0,0,1,1.45,1.45A4.08,4.08,0,0,1,165.44,248.12Zm-1.48.1a2.91,2.91,0,0,0-.32-1.64,2.34,2.34,0,0,0-1-1,3.16,3.16,0,0,0-1.4-.32,2.85,2.85,0,0,0-2,.75,3,3,0,0,0-.88,2.18Zm10.93-4.12a3.59,3.59,0,0,1,2.16.64,3.3,3.3,0,0,1,1.25,1.72v-2.24h1.46V253H178.3v-2.24a3.27,3.27,0,0,1-1.25,1.71,3.52,3.52,0,0,1-2.16.64,4,4,0,0,1-2.08-.54,3.93,3.93,0,0,1-1.44-1.55,5.37,5.37,0,0,1-.51-2.4,5.31,5.31,0,0,1,.51-2.4,3.85,3.85,0,0,1,1.44-1.57A4,4,0,0,1,174.89,244.1Zm.42,1.3a2.84,2.84,0,0,0-2.16.86,3.88,3.88,0,0,0,0,4.72,2.83,2.83,0,0,0,2.16.85,3,3,0,0,0,1.54-.4,2.88,2.88,0,0,0,1.07-1.12,3.66,3.66,0,0,0,.38-1.69,3.7,3.7,0,0,0-.38-1.7,2.75,2.75,0,0,0-1.07-1.12A3,3,0,0,0,175.31,245.4Zm11.39-1.33a3.28,3.28,0,0,1,2.48,1,3.93,3.93,0,0,1,.94,2.84V253h-1.45v-5a2.79,2.79,0,0,0-.68-2,2.38,2.38,0,0,0-1.82-.71,2.49,2.49,0,0,0-1.92.79,3.17,3.17,0,0,0-.72,2.25V253h-1.46v-8.78h1.46v2.08a3,3,0,0,1,1.18-1.65A3.47,3.47,0,0,1,186.7,244.07Zm9.26,0a3.63,3.63,0,0,1,2.16.64,3.33,3.33,0,0,1,1.24,1.72v-5.3h1.46V253h-1.46v-2.24a3.31,3.31,0,0,1-1.24,1.71,3.57,3.57,0,0,1-2.16.64,4,4,0,0,1-2.08-.54,3.79,3.79,0,0,1-1.44-1.55,5.24,5.24,0,0,1-.52-2.4,5.18,5.18,0,0,1,.52-2.4,3.72,3.72,0,0,1,1.44-1.57A4,4,0,0,1,196,244.1Zm.41,1.3a2.87,2.87,0,0,0-2.16.86,3.88,3.88,0,0,0,0,4.72,2.86,2.86,0,0,0,2.16.85,2.92,2.92,0,0,0,1.54-.4,2.82,2.82,0,0,0,1.07-1.12,3.54,3.54,0,0,0,.38-1.69,3.58,3.58,0,0,0-.38-1.7,2.69,2.69,0,0,0-1.07-1.12A2.92,2.92,0,0,0,196.37,245.4ZM211,244.1a4.24,4.24,0,0,1,2.78.9,3.79,3.79,0,0,1,1.36,2.4h-1.53a2.21,2.21,0,0,0-.88-1.47,2.82,2.82,0,0,0-1.76-.55,2.79,2.79,0,0,0-1.41.36,2.53,2.53,0,0,0-1,1.08,3.75,3.75,0,0,0-.38,1.8,3.8,3.8,0,0,0,.38,1.8,2.65,2.65,0,0,0,1,1.08,2.89,2.89,0,0,0,1.41.35,2.76,2.76,0,0,0,1.76-.55,2.25,2.25,0,0,0,.88-1.48h1.53a3.79,3.79,0,0,1-1.36,2.41,4.28,4.28,0,0,1-2.78.88,4.53,4.53,0,0,1-2.24-.54A3.89,3.89,0,0,1,207.2,251a5.12,5.12,0,0,1-.54-2.4,5.06,5.06,0,0,1,.54-2.4,3.82,3.82,0,0,1,1.54-1.57A4.53,4.53,0,0,1,211,244.1Zm10,0a4.67,4.67,0,0,1,2.26.55,3.83,3.83,0,0,1,1.57,1.57,4.84,4.84,0,0,1,.57,2.4,4.89,4.89,0,0,1-.57,2.4,3.9,3.9,0,0,1-1.57,1.55,4.66,4.66,0,0,1-2.26.54,4.73,4.73,0,0,1-2.27-.54,4,4,0,0,1-1.57-1.55,4.89,4.89,0,0,1-.57-2.4,4.84,4.84,0,0,1,.57-2.4,3.89,3.89,0,0,1,1.57-1.57A4.73,4.73,0,0,1,221,244.1Zm0,1.28a3.06,3.06,0,0,0-1.46.36,2.71,2.71,0,0,0-1.07,1.08,3.74,3.74,0,0,0-.4,1.8,3.79,3.79,0,0,0,.4,1.79,2.82,2.82,0,0,0,1.07,1.07,3.18,3.18,0,0,0,1.46.35,3.07,3.07,0,0,0,1.44-.35,2.57,2.57,0,0,0,1.07-1.07,3.56,3.56,0,0,0,.42-1.79,3.53,3.53,0,0,0-.42-1.8,2.48,2.48,0,0,0-1.07-1.08A3,3,0,0,0,221,245.38Zm17.1-1.31a3.22,3.22,0,0,1,2.46,1,3.93,3.93,0,0,1,1,2.84V253h-1.46v-5a2.79,2.79,0,0,0-.64-2,2.2,2.2,0,0,0-1.73-.69,2.41,2.41,0,0,0-1.85.77,3.17,3.17,0,0,0-.69,2.22V253h-1.46v-5a2.79,2.79,0,0,0-.64-2,2.23,2.23,0,0,0-1.73-.69,2.43,2.43,0,0,0-1.87.77,3.17,3.17,0,0,0-.69,2.22V253h-1.45v-8.78h1.45v2a2.87,2.87,0,0,1,1.14-1.59,3.37,3.37,0,0,1,1.9-.56,3.23,3.23,0,0,1,1.94.58,3.09,3.09,0,0,1,1.19,1.66,3.13,3.13,0,0,1,1.23-1.65A3.38,3.38,0,0,1,238.11,244.07Zm16.47,0a3.22,3.22,0,0,1,2.46,1,3.93,3.93,0,0,1,.94,2.84V253h-1.45v-5a2.79,2.79,0,0,0-.64-2,2.22,2.22,0,0,0-1.73-.69,2.41,2.41,0,0,0-1.86.77,3.22,3.22,0,0,0-.68,2.22V253h-1.46v-5a2.79,2.79,0,0,0-.64-2,2.23,2.23,0,0,0-1.73-.69,2.42,2.42,0,0,0-1.87.77,3.17,3.17,0,0,0-.69,2.22V253h-1.45v-8.78h1.45v2a2.82,2.82,0,0,1,1.14-1.59,3.34,3.34,0,0,1,1.9-.56,3.25,3.25,0,0,1,1.94.58,3,3,0,0,1,1.18,1.66,3.23,3.23,0,0,1,1.23-1.65A3.43,3.43,0,0,1,254.58,244.07Zm13.47.15V253H266.6v-2.06a3,3,0,0,1-1.2,1.64,3.49,3.49,0,0,1-2,.56,3.27,3.27,0,0,1-2.46-1,4,4,0,0,1-.94-2.83v-5.12h1.45v5a2.89,2.89,0,0,0,.67,2,2.42,2.42,0,0,0,1.83.71,2.52,2.52,0,0,0,1.92-.77,3.24,3.24,0,0,0,.72-2.27v-4.67Zm7-.15a3.26,3.26,0,0,1,2.48,1,3.93,3.93,0,0,1,.94,2.84V253H277v-5a2.79,2.79,0,0,0-.67-2,2.42,2.42,0,0,0-1.83-.71,2.49,2.49,0,0,0-1.92.79,3.17,3.17,0,0,0-.72,2.25V253h-1.45v-8.78h1.45v2.08a3,3,0,0,1,1.19-1.65A3.42,3.42,0,0,1,275,244.07Zm5.4-2.43a.81.81,0,0,1,.27-.64,1,1,0,0,1,.72-.26,1,1,0,0,1,.72.26.82.82,0,0,1,.28.64.89.89,0,0,1-.28.66,1,1,0,0,1-.72.24,1.06,1.06,0,0,1-.72-.24A.88.88,0,0,1,280.41,241.64Zm1.71,2.58V253h-1.45v-8.78Zm6.54,7.5V253h-1.09a2.82,2.82,0,0,1-2-.64,2.94,2.94,0,0,1-.65-2.14v-4.74h-1.32v-1.26h1.32V242h1.47v2.2h2.27v1.26h-2.27v4.77a1.75,1.75,0,0,0,.3,1.17,1.6,1.6,0,0,0,1.09.3Zm2.38-7.5,2.85,6.91,2.64-6.91h1.62l-5.22,12.94h-1.65l1.83-4.3-3.7-8.64ZM31.77,268.1a3.63,3.63,0,0,1,2.16.64,3.35,3.35,0,0,1,1.25,1.72v-5.3h1.45V277H35.18v-2.24a3.29,3.29,0,0,1-1.25,1.71,3.57,3.57,0,0,1-2.16.64,4,4,0,0,1-2.08-.54A3.85,3.85,0,0,1,28.25,275a5.37,5.37,0,0,1-.51-2.4,5.31,5.31,0,0,1,.51-2.4,3.72,3.72,0,0,1,1.44-1.57A4,4,0,0,1,31.77,268.1Zm.41,1.3a2.87,2.87,0,0,0-2.16.86A3.88,3.88,0,0,0,30,275a2.86,2.86,0,0,0,2.16.85,2.92,2.92,0,0,0,1.54-.4,2.69,2.69,0,0,0,1.07-1.12,3.54,3.54,0,0,0,.39-1.69,3.58,3.58,0,0,0-.39-1.7,2.63,2.63,0,0,0-1.07-1.12A2.92,2.92,0,0,0,32.18,269.4ZM47,272.12a4.58,4.58,0,0,1-.06.8h-7a3.13,3.13,0,0,0,.85,2.26,2.81,2.81,0,0,0,2,.75,2.85,2.85,0,0,0,1.76-.53,2.2,2.2,0,0,0,.88-1.44H47a3.7,3.7,0,0,1-.72,1.63,3.62,3.62,0,0,1-1.43,1.12,4.7,4.7,0,0,1-2,.4,4.53,4.53,0,0,1-2.24-.54A4,4,0,0,1,39.06,275a5.12,5.12,0,0,1-.54-2.4,5.06,5.06,0,0,1,.54-2.4,3.82,3.82,0,0,1,1.54-1.57,4.53,4.53,0,0,1,2.24-.55,4.4,4.4,0,0,1,2.22.55,3.7,3.7,0,0,1,1.46,1.45A4.07,4.07,0,0,1,47,272.12Zm-1.47.1a3.09,3.09,0,0,0-.32-1.64,2.36,2.36,0,0,0-1-1,3,3,0,0,0-1.39-.32,2.89,2.89,0,0,0-2,.75,3,3,0,0,0-.88,2.18Zm6.78,3.23,2.72-7.23h1.57L53.19,277H51.46L48,268.22h1.57Zm13.8-3.33a3.72,3.72,0,0,1-.07.8h-7a3.13,3.13,0,0,0,.85,2.26,2.81,2.81,0,0,0,2,.75,2.85,2.85,0,0,0,1.76-.53,2.2,2.2,0,0,0,.88-1.44h1.55a3.72,3.72,0,0,1-2.14,2.75,4.7,4.7,0,0,1-2,.4,4.53,4.53,0,0,1-2.24-.54A4,4,0,0,1,58.17,275a5.12,5.12,0,0,1-.54-2.4,5.06,5.06,0,0,1,.54-2.4,3.82,3.82,0,0,1,1.54-1.57A4.53,4.53,0,0,1,62,268.1a4.4,4.4,0,0,1,2.22.55,3.7,3.7,0,0,1,1.46,1.45A4.07,4.07,0,0,1,66.14,272.12Zm-1.47.1a3.09,3.09,0,0,0-.32-1.64,2.36,2.36,0,0,0-1-1,3,3,0,0,0-1.39-.32,2.87,2.87,0,0,0-2,.75,3,3,0,0,0-.88,2.18Zm4.83-7.06V277H68V265.16Zm6.32,2.94a4.64,4.64,0,0,1,2.26.55,3.83,3.83,0,0,1,1.57,1.57,4.84,4.84,0,0,1,.57,2.4,4.89,4.89,0,0,1-.57,2.4,4,4,0,0,1-1.57,1.55,4.63,4.63,0,0,1-2.26.54,4.73,4.73,0,0,1-2.27-.54A4.1,4.1,0,0,1,72,275a4.89,4.89,0,0,1-.57-2.4,4.84,4.84,0,0,1,.57-2.4,4,4,0,0,1,1.57-1.57A4.73,4.73,0,0,1,75.82,268.1Zm0,1.28a3,3,0,0,0-1.45.36,2.59,2.59,0,0,0-1.07,1.08,3.63,3.63,0,0,0-.4,1.8,3.67,3.67,0,0,0,.4,1.79,2.69,2.69,0,0,0,1.07,1.07,3.14,3.14,0,0,0,1.45.35,3,3,0,0,0,1.44-.35,2.65,2.65,0,0,0,1.08-1.07,3.67,3.67,0,0,0,.41-1.79,3.63,3.63,0,0,0-.41-1.8,2.56,2.56,0,0,0-1.08-1.08A2.9,2.9,0,0,0,75.82,269.38ZM87,268.1a4,4,0,0,1,2.08.55,3.62,3.62,0,0,1,1.42,1.57,5.06,5.06,0,0,1,.53,2.4,5.11,5.11,0,0,1-.53,2.4,3.74,3.74,0,0,1-1.42,1.55,4,4,0,0,1-2.08.54,3.65,3.65,0,0,1-2.18-.64,3.34,3.34,0,0,1-1.21-1.71v6.4H82.12V268.22h1.46v2.24a3.27,3.27,0,0,1,1.21-1.7A3.59,3.59,0,0,1,87,268.1Zm-.42,1.3a3,3,0,0,0-1.53.4A2.63,2.63,0,0,0,84,270.92a3.58,3.58,0,0,0-.39,1.7,3.54,3.54,0,0,0,.39,1.69A2.69,2.69,0,0,0,85,275.43a3,3,0,0,0,1.53.4,2.8,2.8,0,0,0,2.16-.85,3.81,3.81,0,0,0,0-4.72A2.81,2.81,0,0,0,86.55,269.4Zm17.15-1.33a3.22,3.22,0,0,1,2.47,1,3.93,3.93,0,0,1,.94,2.84V277h-1.46v-5a2.79,2.79,0,0,0-.64-2,2.19,2.19,0,0,0-1.72-.69,2.41,2.41,0,0,0-1.86.77,3.17,3.17,0,0,0-.69,2.22V277H99.29v-5a2.84,2.84,0,0,0-.64-2,2.26,2.26,0,0,0-1.73-.69,2.42,2.42,0,0,0-1.87.77,3.17,3.17,0,0,0-.69,2.22V277H92.9v-8.78h1.46v2a2.81,2.81,0,0,1,1.13-1.59,3.37,3.37,0,0,1,1.91-.56,3.22,3.22,0,0,1,1.93.58,3,3,0,0,1,1.19,1.66,3.13,3.13,0,0,1,1.23-1.65A3.42,3.42,0,0,1,103.7,268.07Zm13.75,4.05a4.58,4.58,0,0,1-.06.8h-7a3.13,3.13,0,0,0,.85,2.26,2.82,2.82,0,0,0,2,.75,2.88,2.88,0,0,0,1.77-.53,2.22,2.22,0,0,0,.87-1.44h1.56a3.7,3.7,0,0,1-.72,1.63,3.62,3.62,0,0,1-1.43,1.12,4.64,4.64,0,0,1-2,.4,4.56,4.56,0,0,1-2.24-.54,4,4,0,0,1-1.54-1.55,5.12,5.12,0,0,1-.54-2.4,5.06,5.06,0,0,1,.54-2.4,3.88,3.88,0,0,1,1.54-1.57,4.56,4.56,0,0,1,2.24-.55,4.4,4.4,0,0,1,2.22.55,3.7,3.7,0,0,1,1.46,1.45A4.07,4.07,0,0,1,117.45,272.12Zm-1.47.1a3.09,3.09,0,0,0-.32-1.64,2.36,2.36,0,0,0-1-1,3,3,0,0,0-1.39-.32,2.89,2.89,0,0,0-2,.75,3,3,0,0,0-.88,2.18Zm8-4.15a3.28,3.28,0,0,1,2.48,1,3.93,3.93,0,0,1,.94,2.84V277H126v-5a2.83,2.83,0,0,0-.67-2,2.42,2.42,0,0,0-1.83-.71,2.49,2.49,0,0,0-1.92.79,3.17,3.17,0,0,0-.72,2.25V277h-1.45v-8.78h1.45v2.08a3,3,0,0,1,1.19-1.65A3.42,3.42,0,0,1,124,268.07Zm9.85,7.65V277h-1.09a2.79,2.79,0,0,1-2-.64,2.9,2.9,0,0,1-.66-2.14v-4.74h-1.31v-1.26h1.31V266h1.47v2.2h2.27v1.26h-2.27v4.77a1.69,1.69,0,0,0,.31,1.17,1.55,1.55,0,0,0,1.08.3Zm2.85-.43V277h-1.76v-1.71Z"/><rect class="cls-4" x="1" y="1" width="392" height="315" rx="19"/><path class="cls-5" d="M55.92,49.44a5.94,5.94,0,0,1,1.87.29c3.71,1.21,5.05,5.29,3.93,8.85a12.86,12.86,0,0,1-3,4.84,39,39,0,0,1-6.38,5l-.25.15-.26-.16a38.57,38.57,0,0,1-6.41-5,13.1,13.1,0,0,1-3-4.83c-1.13-3.56.2-7.64,4-8.87a4.6,4.6,0,0,1,.89-.21h.12a6.18,6.18,0,0,1,.85-.06h.11a6.36,6.36,0,0,1,1.84.33h.06l.09.06a3.9,3.9,0,0,1,.64.26l.38.18a2.2,2.2,0,0,1,.28.18l.15.11,0,0a1.53,1.53,0,0,1,.25.16A6.29,6.29,0,0,1,55.92,49.44Zm2.67,7.25a.84.84,0,0,0,.8-.77V55.8a3.33,3.33,0,0,0-2.12-3.18.81.81,0,0,0-1,.5.83.83,0,0,0,.5,1,1.68,1.68,0,0,1,1.08,1.58v0a.85.85,0,0,0,.19.62A.89.89,0,0,0,58.59,56.69Z"/></svg>