<svg width="50" height="61" viewBox="0 0 50 61" fill="none" xmlns="http://www.w3.org/2000/svg">
<path d="M0 11.1446V0C10.5859 0.852364 16.1024 2.44209 25 7.83133C33.8699 1.89441 39.4 0.364972 50 0V11.1446C39.6775 11.9907 34.1982 13.6062 25 18.9759C16.3491 13.9158 10.9303 12.1127 0 11.1446Z" fill="#FFD1FC"/>
<path d="M45.1807 60.542C38.6584 29.4159 29.3077 18.8155 0 15.0601V26.5058C23.6061 28.617 29.5276 37.818 34.3373 60.542H45.1807Z" fill="white"/>
<path d="M4.81928 60.542C11.3416 29.4159 20.6923 18.8155 50 15.0601V26.5058C26.3939 28.617 20.4724 37.818 15.6627 60.542H4.81928Z" fill="white"/>
<path fill-rule="evenodd" clip-rule="evenodd" d="M16.4727 30.2853C19.9636 31.8859 22.7326 33.9883 24.9997 36.6779C27.2668 33.9883 30.0359 31.8859 33.5268 30.2853C31.1225 27.2039 28.3228 24.6781 24.9997 22.6055C21.6766 24.6781 18.877 27.2039 16.4727 30.2853Z" fill="#060116"/>
</svg>
