<svg width="83" height="77" viewBox="0 0 83 77" fill="none" xmlns="http://www.w3.org/2000/svg">
<path d="M68.5 2.5H44L5.5 56L16 74.5H19L78.5 34V12.5L68.5 2.5Z" fill="url(#paint0_linear_3_317)"/>
<path d="M16.9063 72.1159C17.8826 73.0922 19.4655 73.0922 20.4419 72.1159L29.2789 63.2789C35.1358 57.422 35.1358 47.9261 29.2789 42.0693C23.422 36.2124 13.9262 36.2124 8.06928 42.0693C2.2124 47.9261 2.2124 57.422 8.06928 63.2789L16.9063 72.1159Z" stroke="#0D081D" stroke-width="5" stroke-linejoin="round"/>
<path d="M62.4171 37.1159C63.3934 38.0922 64.9763 38.0922 65.9526 37.1159L74.7896 28.2789C80.6465 22.422 80.6465 12.9261 74.7896 7.06926C68.9328 1.21239 59.4369 1.21239 53.58 7.06926C47.7231 12.9261 47.7231 22.422 53.58 28.2789L62.4171 37.1159Z" stroke="#0D081D" stroke-width="5" stroke-linejoin="round"/>
<path d="M48.5 24C49.8807 24 51 22.8807 51 21.5C51 20.1193 49.8807 19 48.5 19V24ZM48.5 19H35.25V24H48.5V19ZM35.25 37.5H44.75V32.5H35.25V37.5ZM44.75 48H33V53H44.75V48ZM44.75 53C50.4109 53 55 48.4109 55 42.75H50C50 45.6495 47.6495 48 44.75 48V53ZM44.75 37.5C47.6495 37.5 50 39.8505 50 42.75H55C55 37.0891 50.4109 32.5 44.75 32.5V37.5ZM26 28.25C26 33.3586 30.1414 37.5 35.25 37.5V32.5C32.9028 32.5 31 30.5972 31 28.25H26ZM35.25 19C30.1414 19 26 23.1414 26 28.25H31C31 25.9028 32.9028 24 35.25 24V19Z" fill="#0D081D"/>
<path d="M31.5 3.5C24.6214 3.5 18.7004 3.5 13.9982 3.5C7.92304 3.5 3 8.42487 3 14.5V26.5" stroke="#0D081D" stroke-width="5" stroke-linecap="round"/>
<path d="M52 74C58.8786 74 64.7996 74 69.5018 74C75.577 74 80.5 69.0751 80.5 63V51" stroke="#0D081D" stroke-width="5" stroke-linecap="round"/>
<defs>
<linearGradient id="paint0_linear_3_317" x1="40.5" y1="2.5" x2="73.5" y2="34.5" gradientUnits="userSpaceOnUse">
<stop stop-color="#E2ADEB" stop-opacity="0"/>
<stop offset="0.346065" stop-color="#E2ADEB"/>
<stop offset="0.512732" stop-color="#E2ADEB"/>
<stop offset="0.98669" stop-color="#E2ADEB" stop-opacity="0"/>
</linearGradient>
</defs>
</svg>
